<?xml version="1.0" encoding="iso-8859-1"?>
<!-- Generator: Adobe Illustrator 19.0.0, SVG Export Plug-In . SVG Version: 6.00 Build 0)  -->
<svg version="1.1" id="Layer_1" xmlns="http://www.w3.org/2000/svg" xmlns:xlink="http://www.w3.org/1999/xlink" x="0px" y="0px"
	 viewBox="0 0 491.52 491.52" style="enable-background:new 0 0 491.52 491.52;" xml:space="preserve">
<path style="fill:#E1E6E9;" d="M481.804,202.129H9.716c-5.366,0-9.716,4.348-9.716,9.714v237.003c0,5.366,4.35,9.716,9.716,9.716
	h472.088c5.367,0,9.716-4.349,9.716-9.716V211.843C491.52,206.477,487.171,202.129,481.804,202.129z"/>
<path style="fill:#EBF0F3;" d="M481.804,193.192H9.716C4.35,193.192,0,197.54,0,202.907V439.91c0,5.366,4.35,9.716,9.716,9.716
	h472.088c5.367,0,9.716-4.349,9.716-9.716V202.907C491.52,197.54,487.171,193.192,481.804,193.192z"/>
<g>
	<path style="fill:#64798A;" d="M44.752,241.664H16.051c-0.901,0-1.628,0.727-1.628,1.623v12.032c0,0.898,0.727,1.626,1.628,1.626
		h28.701c0.901,0,1.628-0.727,1.628-1.626v-12.032C46.381,242.392,45.653,241.664,44.752,241.664z"/>
	<path style="fill:#64798A;" d="M87.824,241.664H59.123c-0.901,0-1.628,0.727-1.628,1.623v12.032c0,0.898,0.727,1.626,1.628,1.626
		h28.701c0.901,0,1.628-0.727,1.628-1.626v-12.032C89.452,242.392,88.725,241.664,87.824,241.664z"/>
	<path style="fill:#64798A;" d="M130.895,241.664h-28.701c-0.901,0-1.628,0.727-1.628,1.623v12.032c0,0.898,0.727,1.626,1.628,1.626
		h28.701c0.901,0,1.628-0.727,1.628-1.626v-12.032C132.524,242.392,131.796,241.664,130.895,241.664z"/>
	<path style="fill:#64798A;" d="M173.968,241.664h-28.702c-0.9,0-1.627,0.727-1.627,1.623v12.032c0,0.898,0.727,1.626,1.627,1.626
		h28.702c0.9,0,1.627-0.727,1.627-1.626v-12.032C175.595,242.392,174.868,241.664,173.968,241.664z"/>
	<path style="fill:#64798A;" d="M217.039,241.664h-28.701c-0.901,0-1.628,0.727-1.628,1.623v12.032c0,0.898,0.727,1.626,1.628,1.626
		h28.701c0.901,0,1.628-0.727,1.628-1.626v-12.032C218.667,242.392,217.94,241.664,217.039,241.664z"/>
	<path style="fill:#64798A;" d="M260.111,241.664h-28.701c-0.901,0-1.628,0.727-1.628,1.623v12.032c0,0.898,0.727,1.626,1.628,1.626
		h28.701c0.901,0,1.628-0.727,1.628-1.626v-12.032C261.739,242.392,261.011,241.664,260.111,241.664z"/>
	<path style="fill:#64798A;" d="M303.182,241.664h-28.701c-0.901,0-1.628,0.727-1.628,1.623v12.032c0,0.898,0.728,1.626,1.628,1.626
		h28.701c0.901,0,1.628-0.727,1.628-1.626v-12.032C304.81,242.392,304.083,241.664,303.182,241.664z"/>
	<path style="fill:#64798A;" d="M346.254,241.664h-28.702c-0.9,0-1.627,0.727-1.627,1.623v12.032c0,0.898,0.727,1.626,1.627,1.626
		h28.702c0.9,0,1.627-0.727,1.627-1.626v-12.032C347.882,242.392,347.154,241.664,346.254,241.664z"/>
	<path style="fill:#64798A;" d="M389.326,241.664h-28.701c-0.901,0-1.628,0.727-1.628,1.623v12.032c0,0.898,0.727,1.626,1.628,1.626
		h28.701c0.901,0,1.628-0.727,1.628-1.626v-12.032C390.954,242.392,390.227,241.664,389.326,241.664z"/>
	<path style="fill:#64798A;" d="M432.397,241.664h-28.701c-0.901,0-1.628,0.727-1.628,1.623v12.032c0,0.898,0.727,1.626,1.628,1.626
		h28.701c0.901,0,1.628-0.727,1.628-1.626v-12.032C434.026,242.392,433.298,241.664,432.397,241.664z"/>
	<path style="fill:#64798A;" d="M475.469,241.664h-28.701c-0.901,0-1.627,0.727-1.627,1.623v12.032c0,0.898,0.727,1.626,1.627,1.626
		h28.701c0.901,0,1.628-0.727,1.628-1.626v-12.032C477.097,242.392,476.369,241.664,475.469,241.664z"/>
	<path style="fill:#64798A;" d="M46.153,273.177H16.126c-0.943,0-1.703,0.727-1.703,1.623v25.269c0,0.898,0.761,1.626,1.703,1.626
		h30.027c0.942,0,1.703-0.727,1.703-1.626V274.8C47.856,273.905,47.095,273.177,46.153,273.177z"/>
	<path style="fill:#64798A;" d="M91.214,273.177H61.187c-0.942,0-1.703,0.727-1.703,1.623v25.269c0,0.898,0.761,1.626,1.703,1.626
		h30.027c0.943,0,1.703-0.727,1.703-1.626V274.8C92.917,273.905,92.156,273.177,91.214,273.177z"/>
	<path style="fill:#64798A;" d="M136.274,273.177h-30.026c-0.942,0-1.703,0.727-1.703,1.623v25.269c0,0.898,0.761,1.626,1.703,1.626
		h30.026c0.943,0,1.703-0.727,1.703-1.626V274.8C137.978,273.905,137.217,273.177,136.274,273.177z"/>
	<path style="fill:#64798A;" d="M181.336,273.177h-30.027c-0.942,0-1.703,0.727-1.703,1.623v25.269c0,0.898,0.761,1.626,1.703,1.626
		h30.027c0.942,0,1.703-0.727,1.703-1.626V274.8C183.039,273.905,182.278,273.177,181.336,273.177z"/>
	<path style="fill:#64798A;" d="M226.397,273.177H196.37c-0.943,0-1.703,0.727-1.703,1.623v25.269c0,0.898,0.761,1.626,1.703,1.626
		h30.027c0.942,0,1.703-0.727,1.703-1.626V274.8C228.1,273.905,227.339,273.177,226.397,273.177z"/>
	<path style="fill:#64798A;" d="M271.457,273.177h-30.027c-0.943,0-1.703,0.727-1.703,1.623v25.269c0,0.898,0.76,1.626,1.703,1.626
		h30.027c0.942,0,1.703-0.727,1.703-1.626V274.8C273.161,273.905,272.399,273.177,271.457,273.177z"/>
	<path style="fill:#64798A;" d="M316.518,273.177h-30.027c-0.942,0-1.703,0.727-1.703,1.623v25.269c0,0.898,0.761,1.626,1.703,1.626
		h30.027c0.942,0,1.703-0.727,1.703-1.626V274.8C318.222,273.905,317.46,273.177,316.518,273.177z"/>
	<path style="fill:#64798A;" d="M361.579,273.177h-30.026c-0.942,0-1.703,0.727-1.703,1.623v25.269c0,0.898,0.761,1.626,1.703,1.626
		h30.026c0.943,0,1.703-0.727,1.703-1.626V274.8C363.282,273.905,362.522,273.177,361.579,273.177z"/>
	<path style="fill:#64798A;" d="M406.641,273.177h-30.027c-0.942,0-1.703,0.727-1.703,1.623v25.269c0,0.898,0.761,1.626,1.703,1.626
		h30.027c0.942,0,1.702-0.727,1.702-1.626V274.8C408.343,273.905,407.583,273.177,406.641,273.177z"/>
	<path style="fill:#64798A;" d="M475.469,273.177h-55.511c-0.901,0-1.627,0.727-1.627,1.623v25.269c0,0.898,0.727,1.626,1.627,1.626
		h55.511c0.901,0,1.628-0.727,1.628-1.626V274.8C477.097,273.905,476.369,273.177,475.469,273.177z"/>
	<path style="fill:#64798A;" d="M46.153,395.154H16.126c-0.943,0-1.703,0.727-1.703,1.624v33.172c0,0.898,0.761,1.626,1.703,1.626
		h30.027c0.942,0,1.703-0.727,1.703-1.626v-33.172C47.856,395.881,47.095,395.154,46.153,395.154z"/>
	<path style="fill:#64798A;" d="M91.214,395.154H61.187c-0.942,0-1.703,0.727-1.703,1.624v33.172c0,0.898,0.761,1.626,1.703,1.626
		h30.027c0.943,0,1.703-0.727,1.703-1.626v-33.172C92.917,395.881,92.156,395.154,91.214,395.154z"/>
	<path style="fill:#64798A;" d="M271.457,395.154h-165.21c-0.942,0-1.703,0.727-1.703,1.624v33.172c0,0.898,0.761,1.626,1.703,1.626
		h165.21c0.942,0,1.703-0.727,1.703-1.626v-33.172C273.161,395.881,272.399,395.154,271.457,395.154z"/>
	<path style="fill:#64798A;" d="M316.518,395.154h-30.027c-0.942,0-1.703,0.727-1.703,1.624v33.172c0,0.898,0.761,1.626,1.703,1.626
		h30.027c0.942,0,1.703-0.727,1.703-1.626v-33.172C318.222,395.881,317.46,395.154,316.518,395.154z"/>
	<path style="fill:#64798A;" d="M357.807,395.154h-30.027c-0.942,0-1.702,0.727-1.702,1.624v33.172c0,0.898,0.76,1.626,1.702,1.626
		h30.027c0.942,0,1.703-0.727,1.703-1.626v-33.172C359.51,395.881,358.749,395.154,357.807,395.154z"/>
	<path style="fill:#64798A;" d="M397.562,415.693h-30.027c-0.943,0-1.703,0.728-1.703,1.623v12.634c0,0.898,0.76,1.626,1.703,1.626
		h30.027c0.942,0,1.703-0.727,1.703-1.626v-12.634C399.265,416.42,398.504,415.693,397.562,415.693z"/>
	<path style="fill:#64798A;" d="M475.394,415.693h-30.027c-0.942,0-1.703,0.728-1.703,1.623v12.634c0,0.898,0.761,1.626,1.703,1.626
		h30.027c0.943,0,1.703-0.727,1.703-1.626v-12.634C477.097,416.42,476.336,415.693,475.394,415.693z"/>
	<path style="fill:#64798A;" d="M436.005,415.693h-30.027c-0.942,0-1.703,0.728-1.703,1.623v12.634c0,0.898,0.76,1.626,1.703,1.626
		h30.027c0.942,0,1.703-0.727,1.703-1.626v-12.634C437.708,416.42,436.947,415.693,436.005,415.693z"/>
	<path style="fill:#64798A;" d="M436.005,396.777h-30.027c-0.942,0-1.703,0.727-1.703,1.623v12.634c0,0.898,0.76,1.626,1.703,1.626
		h30.027c0.942,0,1.703-0.727,1.703-1.626V398.4C437.708,397.505,436.947,396.777,436.005,396.777z"/>
	<path style="fill:#64798A;" d="M445.367,342.71h30.027c0.943,0,1.703-0.728,1.703-1.623v-25.27c0-0.898-0.76-1.626-1.703-1.626
		h-30.027c-0.942,0-1.703,0.727-1.703,1.626v25.27C443.664,341.983,444.425,342.71,445.367,342.71z"/>
	<path style="fill:#64798A;" d="M400.306,342.71h30.027c0.942,0,1.703-0.728,1.703-1.623v-25.27c0-0.898-0.761-1.626-1.703-1.626
		h-30.027c-0.943,0-1.703,0.727-1.703,1.626v25.27C398.603,341.983,399.363,342.71,400.306,342.71z"/>
	<path style="fill:#64798A;" d="M355.246,342.71h30.027c0.942,0,1.703-0.728,1.703-1.623v-25.27c0-0.898-0.761-1.626-1.703-1.626
		h-30.027c-0.943,0-1.703,0.727-1.703,1.626v25.27C353.542,341.983,354.303,342.71,355.246,342.71z"/>
	<path style="fill:#64798A;" d="M310.184,342.71h30.027c0.942,0,1.703-0.728,1.703-1.623v-25.27c0-0.898-0.761-1.626-1.703-1.626
		h-30.027c-0.942,0-1.703,0.727-1.703,1.626v25.27C308.481,341.983,309.242,342.71,310.184,342.71z"/>
	<path style="fill:#64798A;" d="M265.123,342.71h30.027c0.942,0,1.702-0.728,1.702-1.623v-25.27c0-0.898-0.76-1.626-1.702-1.626
		h-30.027c-0.942,0-1.703,0.727-1.703,1.626v25.27C263.42,341.983,264.181,342.71,265.123,342.71z"/>
	<path style="fill:#64798A;" d="M220.062,342.71h30.027c0.943,0,1.703-0.728,1.703-1.623v-25.27c0-0.898-0.761-1.626-1.703-1.626
		h-30.027c-0.942,0-1.703,0.727-1.703,1.626v25.27C218.359,341.983,219.12,342.71,220.062,342.71z"/>
	<path style="fill:#64798A;" d="M175.002,342.71h30.027c0.942,0,1.703-0.728,1.703-1.623v-25.27c0-0.898-0.761-1.626-1.703-1.626
		h-30.027c-0.942,0-1.703,0.727-1.703,1.626v25.27C173.298,341.983,174.06,342.71,175.002,342.71z"/>
	<path style="fill:#64798A;" d="M129.941,342.71h30.027c0.942,0,1.703-0.728,1.703-1.623v-25.27c0-0.898-0.761-1.626-1.703-1.626
		h-30.027c-0.943,0-1.703,0.727-1.703,1.626v25.27C128.238,341.983,128.998,342.71,129.941,342.71z"/>
	<path style="fill:#64798A;" d="M84.879,342.71h30.027c0.942,0,1.703-0.728,1.703-1.623v-25.27c0-0.898-0.761-1.626-1.703-1.626
		H84.879c-0.942,0-1.702,0.727-1.702,1.626v25.27C83.177,341.983,83.937,342.71,84.879,342.71z"/>
	<path style="fill:#64798A;" d="M16.051,342.71h55.511c0.901,0,1.628-0.728,1.628-1.623v-25.27c0-0.898-0.727-1.626-1.628-1.626
		H16.051c-0.901,0-1.628,0.727-1.628,1.626v25.27C14.423,341.983,15.15,342.71,16.051,342.71z"/>
	<path style="fill:#64798A;" d="M372.544,383.725h30.027c0.942,0,1.703-0.727,1.703-1.623v-25.27c0-0.898-0.761-1.626-1.703-1.626
		h-30.027c-0.942,0-1.703,0.727-1.703,1.626v25.27C370.841,382.998,371.602,383.725,372.544,383.725z"/>
	<path style="fill:#64798A;" d="M327.484,383.725h30.027c0.943,0,1.703-0.727,1.703-1.623v-25.27c0-0.898-0.76-1.626-1.703-1.626
		h-30.027c-0.942,0-1.703,0.727-1.703,1.626v25.27C325.78,382.998,326.542,383.725,327.484,383.725z"/>
	<path style="fill:#64798A;" d="M282.423,383.725h30.027c0.943,0,1.703-0.727,1.703-1.623v-25.27c0-0.898-0.761-1.626-1.703-1.626
		h-30.027c-0.942,0-1.703,0.727-1.703,1.626v25.27C280.72,382.998,281.481,383.725,282.423,383.725z"/>
	<path style="fill:#64798A;" d="M237.362,383.725h30.027c0.942,0,1.703-0.727,1.703-1.623v-25.27c0-0.898-0.761-1.626-1.703-1.626
		h-30.027c-0.943,0-1.703,0.727-1.703,1.626v25.27C235.659,382.998,236.419,383.725,237.362,383.725z"/>
	<path style="fill:#64798A;" d="M192.301,383.725h30.027c0.942,0,1.703-0.727,1.703-1.623v-25.27c0-0.898-0.761-1.626-1.703-1.626
		h-30.027c-0.943,0-1.703,0.727-1.703,1.626v25.27C190.598,382.998,191.359,383.725,192.301,383.725z"/>
	<path style="fill:#64798A;" d="M147.24,383.725h30.027c0.942,0,1.703-0.727,1.703-1.623v-25.27c0-0.898-0.761-1.626-1.703-1.626
		H147.24c-0.942,0-1.702,0.727-1.702,1.626v25.27C145.537,382.998,146.298,383.725,147.24,383.725z"/>
	<path style="fill:#64798A;" d="M102.179,383.725h30.027c0.942,0,1.702-0.727,1.702-1.623v-25.27c0-0.898-0.76-1.626-1.702-1.626
		h-30.027c-0.942,0-1.703,0.727-1.703,1.626v25.27C100.476,382.998,101.237,383.725,102.179,383.725z"/>
	<path style="fill:#64798A;" d="M16.051,383.725h73.385c0.901,0,1.628-0.727,1.628-1.623v-25.27c0-0.898-0.727-1.626-1.628-1.626
		H16.051c-0.901,0-1.628,0.727-1.628,1.626v25.27C14.423,382.998,15.15,383.725,16.051,383.725z"/>
	<path style="fill:#64798A;" d="M419.957,383.725h55.511c0.901,0,1.628-0.727,1.628-1.623v-25.27c0-0.898-0.727-1.626-1.628-1.626
		h-55.511c-0.901,0-1.627,0.727-1.627,1.626v25.27C418.33,382.998,419.056,383.725,419.957,383.725z"/>
</g>
<path style="fill:#E56353;" d="M441.238,32.958H249.592c-6.794,0-12.303,5.508-12.303,12.302v110.397
	c0,6.795,5.509,12.302,12.303,12.302h22.106v42.687c0,6.187,7.483,9.286,11.855,4.911l47.601-47.598h110.084
	c6.794,0,12.301-5.508,12.301-12.302V45.26C453.539,38.466,448.032,32.958,441.238,32.958z"/>
<g>
	<rect x="268.646" y="61.798" style="fill:#D15241;" width="153.585" height="13.404"/>
	<rect x="268.646" y="95.288" style="fill:#D15241;" width="153.585" height="13.404"/>
	<rect x="268.646" y="128.819" style="fill:#D15241;" width="153.585" height="13.404"/>
</g>
<g>
</g>
<g>
</g>
<g>
</g>
<g>
</g>
<g>
</g>
<g>
</g>
<g>
</g>
<g>
</g>
<g>
</g>
<g>
</g>
<g>
</g>
<g>
</g>
<g>
</g>
<g>
</g>
<g>
</g>
</svg>
