<svg height="512" viewBox="0 0 58 58" width="512" xmlns="http://www.w3.org/2000/svg"><g id="Page-1" fill="none" fill-rule="evenodd"><g id="012---Cross-Platform-Chat" fill-rule="nonzero"><path id="Shape" d="m32 50-32 1v-47c0-2.209139 1.790861-4 4-4h32c2.209139 0 4 1.790861 4 4v10z" fill="#2980ba"/><path id="Shape" d="m37 14h-1c-2.209139 0-4 1.790861-4 4v36c-.0024674.2418121.0210001.4831917.07.72v-.015c.3383248 1.9056322 1.9945679 3.2942635 3.93 3.295h18c2.209139 0 4-1.790861 4-4v-36c0-2.209139-1.790861-4-4-4z" fill="#46b29d"/><path id="Shape" d="m37.25.2c-9.04 1.08-37.25 7.81-37.25 49.8v-46c0-2.209139 1.790861-4 4-4h32c.4247175-.00107278.84682.06646363 1.25.2z" fill="#3b97d3"/><path id="Shape" d="m36 58h-32c-2.209139 0-4-1.790861-4-4v-4h32v4c0 2.209139 1.790861 4 4 4z" fill="#464f5d"/><path id="Shape" d="m23 5h-6c-.5522847 0-1-.44771525-1-1s.4477153-1 1-1h6c.5522847 0 1 .44771525 1 1s-.4477153 1-1 1z" fill="#464f5d"/><path id="Shape" d="m24 55h-8c-.5522847 0-1-.4477153-1-1s.4477153-1 1-1h8c.5522847 0 1 .4477153 1 1s-.4477153 1-1 1z" fill="#95a5a5"/><path id="Shape" d="m58 18v3s-24.44 0-25.93 33.72c-.0489999-.2368083-.0724674-.4781879-.07-.72v-36c0-2.209139 1.790861-4 4-4h1l2.42 4.03c.3607796.6005024 1.0094554.9684647 1.71.97h7.74c.7005446-.0015353 1.3492204-.3694976 1.71-.97l2.42-4.03h1c2.209139 0 4 1.790861 4 4z" fill="#65ddb9"/><path id="Shape" d="m53 14-2.42 4.03c-.3607796.6005024-1.0094554.9684647-1.71.97h-7.74c-.7005446-.0015353-1.3492204-.3694976-1.71-.97l-2.42-4.03z" fill="#464f5d"/><path id="Shape" d="m52 55h-14c-.5522847 0-1-.4477153-1-1s.4477153-1 1-1h14c.5522847 0 1 .4477153 1 1s-.4477153 1-1 1z" fill="#464f5d"/><path id="Shape" d="m26 11v8c0 1.6568542-1.3431458 3-3 3h-1.75l.75 6-6.86-6h-8.14c-1.65685425 0-3-1.3431458-3-3v-8c0-1.65685425 1.34314575-3 3-3h16c1.6568542 0 3 1.34314575 3 3z" fill="#f0c419"/><g fill="#fff"><path id="Shape" d="m10 14h-2c-.55228475 0-1-.4477153-1-1s.44771525-1 1-1h2c.5522847 0 1 .4477153 1 1s-.4477153 1-1 1z"/><path id="Shape" d="m22 14h-8c-.5522847 0-1-.4477153-1-1s.4477153-1 1-1h8c.5522847 0 1 .4477153 1 1s-.4477153 1-1 1z"/><path id="Shape" d="m22 18h-2c-.5522847 0-1-.4477153-1-1s.4477153-1 1-1h2c.5522847 0 1 .4477153 1 1s-.4477153 1-1 1z"/><path id="Shape" d="m16 18h-8c-.55228475 0-1-.4477153-1-1s.44771525-1 1-1h8c.5522847 0 1 .4477153 1 1s-.4477153 1-1 1z"/></g><path id="Shape" d="m4 43v-8c0-1.6568542 1.34314575-3 3-3h1.75l-.75-6 6.86 6h8.14c1.6568542 0 3 1.3431458 3 3v8c0 1.6568542-1.3431458 3-3 3h-16c-1.65685425 0-3-1.3431458-3-3z" fill="#ff5364"/><path id="Shape" d="m22 42h-2c-.5522847 0-1-.4477153-1-1s.4477153-1 1-1h2c.5522847 0 1 .4477153 1 1s-.4477153 1-1 1z" fill="#fff"/><path id="Shape" d="m16 42h-8c-.55228475 0-1-.4477153-1-1s.44771525-1 1-1h8c.5522847 0 1 .4477153 1 1s-.4477153 1-1 1z" fill="#fff"/><path id="Shape" d="m10 38h-2c-.55228475 0-1-.4477153-1-1s.44771525-1 1-1h2c.5522847 0 1 .4477153 1 1s-.4477153 1-1 1z" fill="#fff"/><path id="Shape" d="m22 38h-8c-.5522847 0-1-.4477153-1-1s.4477153-1 1-1h8c.5522847 0 1 .4477153 1 1s-.4477153 1-1 1z" fill="#fff"/><path id="Shape" d="m37 47.947v-5.894c-.0015936-.5435906.2130936-1.0654922.5967207-1.4506201.3836272-.3851279.9046866-.6018511 1.4482793-.6023799h1.194l-.239-4 4.405 4h6.55c.5435927.0005288 1.0646521.217252 1.4482793.6023799.3836271.3851279.5983143.9070295.5967207 1.4506201v5.894c.0015936.5435906-.2130936 1.0654922-.5967207 1.4506201-.3836272.3851279-.9046866.6018511-1.4482793.6023799h-11.91c-.5435927-.0005288-1.0646521-.217252-1.4482793-.6023799-.3836271-.3851279-.5983143-.9070295-.5967207-1.4506201z" fill="#ff5364"/><path id="Shape" d="m53 25.053v5.894c.0015936.5435906-.2130936 1.0654922-.5967207 1.4506201-.3836272.3851279-.9046866.6018511-1.4482793.6023799h-1.194l.239 4-4.4-4h-6.55c-.544459.0008003-1.0668049-.2153365-1.4515143-.6006089-.3847095-.3852725-.6000822-.9079339-.5984857-1.4523911v-5.894c-.0015936-.5435906.2130936-1.0654922.5967207-1.4506201.3836272-.3851279.9046866-.6018511 1.4482793-.6023799h11.91c.5435927.0005288 1.0646521.217252 1.4482793.6023799.3836271.3851279.5983143.9070295.5967207 1.4506201z" fill="#f0c419"/></g></g></svg>