<svg height="512" viewBox="0 0 58 52" width="512" xmlns="http://www.w3.org/2000/svg"><g id="Page-1" fill="none" fill-rule="evenodd"><g id="028---Locked-Chat" fill-rule="nonzero"><path id="Shape" d="m10 19v-8c-.00159287-2.91786941 1.1568209-5.71668804 3.2200664-7.77993359 2.0632456-2.06324556 4.8620642-3.22165928 7.7799336-3.22006641h26c2.9178694-.00159287 5.716688 1.15682085 7.7799336 3.22006641 2.0632455 2.06324555 3.2216593 4.86206418 3.2200664 7.77993359v20c-.0653999 5.1088771-3.6052634 9.5151406-8.58 10.68-.4985236.1253484-.8165636.6133001-.73 1.12l1.29 8.01c.0812981.4360035-.1343012.8734642-.5295993 1.0745807-.395298.2011166-.8758379.117832-1.1804007-.2045807l-8.38-9.35c-.1918463-.211442-.4644992-.3314092-.75-.33h-19.14l-5.152-16.5z" fill="#3b97d3"/><path id="Shape" d="m47 38c-.5522847 0-1-.4477153-1-1s.4477153-1 1-1c3.3123376-.0033074 5.9966926-2.6876624 6-6 0-.5522847.4477153-1 1-1s1 .4477153 1 1c-.0049599 4.4162219-3.5837781 7.9950401-8 8z" fill="#2980ba"/><path id="Shape" d="m18 27v6h-4v-6c0-2.209139-1.790861-4-4-4s-4 1.790861-4 4v6h-4v-6c0-4.418278 3.581722-8 8-8s8 3.581722 8 8z" fill="#bdc3c7"/><g fill="#fff"><path id="Shape" d="m48 10h-19c-.5522847 0-1-.44771525-1-1s.4477153-1 1-1h19c.5522847 0 1 .44771525 1 1s-.4477153 1-1 1z"/><path id="Shape" d="m25 10h-5c-.5522847 0-1-.44771525-1-1s.4477153-1 1-1h5c.5522847 0 1 .44771525 1 1s-.4477153 1-1 1z"/><path id="Shape" d="m39 15h-19c-.5522847 0-1-.4477153-1-1s.4477153-1 1-1h19c.5522847 0 1 .4477153 1 1s-.4477153 1-1 1z"/><path id="Shape" d="m48 15h-5c-.5522847 0-1-.4477153-1-1s.4477153-1 1-1h5c.5522847 0 1 .4477153 1 1s-.4477153 1-1 1z"/><path id="Shape" d="m48 20h-19c-.5522847 0-1-.4477153-1-1s.4477153-1 1-1h19c.5522847 0 1 .4477153 1 1s-.4477153 1-1 1z"/><path id="Shape" d="m25 20h-5c-.5522847 0-1-.4477153-1-1s.4477153-1 1-1h5c.5522847 0 1 .4477153 1 1s-.4477153 1-1 1z"/><path id="Shape" d="m39 25h-17.38c-.5522847 0-1-.4477153-1-1s.4477153-1 1-1h17.38c.5522847 0 1 .4477153 1 1s-.4477153 1-1 1z"/><path id="Shape" d="m48 25h-5c-.5522847 0-1-.4477153-1-1s.4477153-1 1-1h5c.5522847 0 1 .4477153 1 1s-.4477153 1-1 1z"/></g><rect id="Rectangle-path" fill="#f0c419" height="20" rx="2" width="20" y="32"/><path id="Shape" d="m13 41c.0063217-1.5272079-1.1356803-2.8154186-2.6526303-2.9922422-1.51695008-.1768237-2.92462959.8141827-3.26974332 2.3018992-.34511373 1.4877166.48250048 2.9972562 1.92237362 3.506343v3.184c0 .5522847.44771525 1 1 1 .5522847 0 1-.4477153 1-1v-3.184c1.1962368-.4197527 1.9977321-1.548258 2-2.816z" fill="#d25627"/></g></g></svg>