<?xml version="1.0" encoding="iso-8859-1"?>
<!-- Generator: Adobe Illustrator 19.0.0, SVG Export Plug-In . SVG Version: 6.00 Build 0)  -->
<svg version="1.1" id="Layer_1" xmlns="http://www.w3.org/2000/svg" xmlns:xlink="http://www.w3.org/1999/xlink" x="0px" y="0px"
	 viewBox="0 0 428.591 428.591" style="enable-background:new 0 0 428.591 428.591;" xml:space="preserve">
<g>
	<g>
		<path style="fill:#E6E6E6;" d="M297.293,151.01V41.751c0-16.463-13.346-29.809-29.809-29.809H57.103
			c-16.463,0-29.809,13.346-29.809,29.809V151.01c0,16.463,13.346,29.809,29.809,29.809h6.191l-24,42l78-42h150.191
			C283.948,180.819,297.293,167.473,297.293,151.01z"/>
		<path style="fill:#E6E6E6;" d="M371.485,217.714H161.103c-16.463,0-29.809,13.346-29.809,29.809v109.259
			c0,16.463,13.346,29.809,29.809,29.809h150.191l78,42l-24-42h6.191c16.463,0,29.809-13.346,29.809-29.809v-109.26
			C401.293,231.059,387.948,217.714,371.485,217.714z"/>
	</g>
	<path style="fill:#F9A18A;" d="M297.297,29.81v109.26c0,16.46-13.35,29.8-29.81,29.8h-150.19l-78,42l24-42h-6.19
		c-16.47,0-29.81-13.34-29.81-29.8V29.81C27.298,13.34,40.638,0,57.108,0h210.38C283.947,0,297.297,13.34,297.297,29.81z"/>
	<path style="fill:#AFDAF9;" d="M401.297,235.58v109.26c0,16.46-13.35,29.8-29.81,29.8h-6.19l24,42l-78-42h-150.19
		c-16.47,0-29.81-13.34-29.81-29.8V235.58c0-16.47,13.34-29.81,29.81-29.81h210.38C387.947,205.77,401.297,219.11,401.297,235.58z"
		/>
	<circle style="fill:#F9DD53;" cx="266.293" cy="292.403" r="58.101"/>
	<path style="fill:#4D4D4D;" d="M240.568,286.02c-1.98,0-3.91-0.8-5.3-2.19c-1.4-1.4-2.2-3.33-2.2-5.31c0-1.97,0.8-3.9,2.2-5.3
		c1.39-1.4,3.32-2.2,5.3-2.2s3.91,0.8,5.3,2.2c1.4,1.4,2.2,3.33,2.2,5.3c0,1.98-0.8,3.91-2.2,5.31
		C244.477,285.22,242.548,286.02,240.568,286.02z"/>
	<path style="fill:#4D4D4D;" d="M292.016,286.02c-1.97,0-3.9-0.8-5.3-2.19c-1.4-1.4-2.2-3.33-2.2-5.31c0-1.97,0.8-3.91,2.2-5.3
		c1.4-1.4,3.33-2.2,5.3-2.2c1.98,0,3.91,0.8,5.31,2.2c1.39,1.39,2.19,3.33,2.19,5.3c0,1.98-0.8,3.91-2.19,5.31
		C295.927,285.22,293.996,286.02,292.016,286.02z"/>
	<path style="fill:#4D4D4D;" d="M241.544,300.722c0,13.669,11.081,24.75,24.75,24.75c13.669,0,24.75-11.081,24.75-24.75H241.544z"/>
	<circle style="fill:#F9DD53;" cx="162.294" cy="84.466" r="52.101"/>
	<path style="fill:#4D4D4D;" d="M139.219,79.521c-1.97,0-3.9-0.8-5.3-2.2c-1.4-1.39-2.2-3.33-2.2-5.3s0.8-3.91,2.2-5.3
		c1.4-1.4,3.33-2.2,5.3-2.2c1.98,0,3.91,0.8,5.31,2.2c1.39,1.39,2.19,3.33,2.19,5.3s-0.8,3.91-2.19,5.3
		C143.13,78.721,141.199,79.521,139.219,79.521z"/>
	<path style="fill:#4D4D4D;" d="M185.359,79.521c-1.97,0-3.9-0.8-5.3-2.2c-1.4-1.39-2.2-3.33-2.2-5.3c0-1.98,0.8-3.91,2.2-5.3
		c1.4-1.4,3.33-2.2,5.3-2.2c1.98,0,3.91,0.8,5.31,2.2c1.39,1.39,2.19,3.32,2.19,5.3s-0.8,3.91-2.19,5.3
		C189.27,78.721,187.34,79.521,185.359,79.521z"/>
	<path style="fill:#4D4D4D;" d="M162.294,107.266c-6.841,0-13.683-2.604-18.891-7.813c-1.367-1.367-1.367-3.583,0-4.95
		s3.583-1.367,4.95,0c7.689,7.688,20.196,7.687,27.884,0c1.367-1.367,3.583-1.367,4.95,0s1.367,3.583,0,4.95
		C175.978,104.662,169.135,107.266,162.294,107.266z"/>
	<path style="opacity:0.23;fill:#F2F2F2;enable-background:new    ;" d="M181.338,205.77l-15.9,30.55l-11.83,22.74l-22.31,42.87
		v-66.35c0-16.47,13.34-29.81,29.81-29.81L181.338,205.77L181.338,205.77z"/>
	<path style="opacity:0.23;fill:#F2F2F2;enable-background:new    ;" d="M401.297,235.58v109.26c0,16.46-13.35,29.8-29.81,29.8
		h-6.19l24,42l-78-42h-82.4l87.87-168.87h54.72C387.947,205.77,401.297,219.11,401.297,235.58z"/>
	<path style="opacity:0.23;fill:#F2F2F2;enable-background:new    ;" d="M79.508,0l-22.94,44.08L44.178,67.9l-16.88,32.43V29.81
		C27.298,13.34,40.638,0,57.108,0H79.508z"/>
	<path style="opacity:0.23;fill:#F2F2F2;enable-background:new    ;" d="M297.297,29.81v109.26c0,16.46-13.35,29.8-29.81,29.8
		h-121.05L234.308,0h33.18C283.947,0,297.297,13.34,297.297,29.81z"/>
</g>
<g>
</g>
<g>
</g>
<g>
</g>
<g>
</g>
<g>
</g>
<g>
</g>
<g>
</g>
<g>
</g>
<g>
</g>
<g>
</g>
<g>
</g>
<g>
</g>
<g>
</g>
<g>
</g>
<g>
</g>
</svg>
