<?xml version="1.0" encoding="iso-8859-1"?>
<!-- Generator: Adobe Illustrator 19.0.0, SVG Export Plug-In . SVG Version: 6.00 Build 0)  -->
<svg version="1.1" id="Layer_1" xmlns="http://www.w3.org/2000/svg" xmlns:xlink="http://www.w3.org/1999/xlink" x="0px" y="0px"
	 viewBox="0 0 297.001 297.001" style="enable-background:new 0 0 297.001 297.001;" xml:space="preserve">
<g>
	<g>
		<g>
			<g>
				<g>
					<g>
						<circle style="fill:#79302A;" cx="148.501" cy="148.5" r="148.5"/>
					</g>
				</g>
			</g>
		</g>
	</g>
	<path style="fill:#561E1B;" d="M296.802,140.768l-56.796-56.796L56.913,213.042l83.767,83.754c2.59,0.135,5.197,0.205,7.82,0.205
		c82.014,0,148.5-66.486,148.5-148.5C297,145.907,296.932,143.329,296.802,140.768z"/>
	<g>
		<path style="fill:#FFFFFF;" d="M229.418,217.333H67.585c-8.514,0-15.417-6.902-15.417-15.417V95.084
			c0-8.514,6.902-15.417,15.417-15.417h161.833c8.514,0,15.417,6.902,15.417,15.417v106.833
			C244.833,210.431,237.932,217.333,229.418,217.333z"/>
	</g>
	<g>
		<path style="fill:#ECF0F1;" d="M229.418,79.667h-80.75v137.667h80.75c8.514,0,15.417-6.902,15.417-15.417V95.083
			C244.833,86.569,237.932,79.667,229.418,79.667z"/>
	</g>
	<g>
		<path style="fill:#D0D5D9;" d="M148.501,157.508l95.952-65.797c-1.54-6.89-7.681-12.044-15.035-12.044H67.584
			c-7.354,0-13.496,5.154-15.035,12.044L148.501,157.508z"/>
	</g>
	<g>
		<path style="fill:#AAADAF;" d="M229.418,79.667h-80.75v77.727l95.785-65.683C242.913,84.821,236.771,79.667,229.418,79.667z"/>
	</g>
	<g>
		<path style="fill:#8A9093;" d="M170.074,149.677v-21.573c0-11.914-9.659-21.573-21.573-21.573s-21.573,9.659-21.573,21.573v21.573
			l7.191-7.191v-14.382c0-7.943,6.439-14.382,14.382-14.382c7.943,0,14.382,6.439,14.382,14.382v14.382L170.074,149.677z"/>
	</g>
	<g>
		<path style="fill:#777D7F;" d="M148.668,106.54v7.191c7.865,0.09,14.215,6.487,14.215,14.373v14.382l7.191,7.191v-21.573
			C170.074,116.246,160.505,106.63,148.668,106.54z"/>
	</g>
	<g>
		<path style="fill:#32373B;" d="M128.366,198h40.27c4.607,0,8.341-3.735,8.341-8.341v-40.27c0-4.607-3.735-8.341-8.341-8.341
			h-40.27c-4.607,0-8.341,3.735-8.341,8.341v40.27C120.025,194.265,123.759,198,128.366,198z"/>
	</g>
	<g>
		<path style="fill:#292D30;" d="M168.635,141.048h-19.968V198h19.968c4.607,0,8.341-3.735,8.341-8.341v-40.27
			C176.977,144.782,173.243,141.048,168.635,141.048z"/>
	</g>
	<g>
		<path style="fill:#FFFFFF;" d="M154.109,166.018c0-3.098-2.511-5.609-5.609-5.609s-5.609,2.511-5.609,5.609
			c0,1.77,0.822,3.347,2.103,4.375v4.74c0,1.936,1.57,3.506,3.506,3.506s3.506-1.57,3.506-3.506v-4.74
			C153.288,169.365,154.109,167.789,154.109,166.018z"/>
	</g>
	<g>
		<path style="fill:#ECF0F1;" d="M148.668,160.418v18.204c1.857-0.089,3.339-1.61,3.339-3.489v-4.74
			c1.281-1.028,2.103-2.604,2.103-4.375C154.109,162.977,151.688,160.507,148.668,160.418z"/>
	</g>
</g>
<g>
</g>
<g>
</g>
<g>
</g>
<g>
</g>
<g>
</g>
<g>
</g>
<g>
</g>
<g>
</g>
<g>
</g>
<g>
</g>
<g>
</g>
<g>
</g>
<g>
</g>
<g>
</g>
<g>
</g>
</svg>
