<?xml version="1.0" encoding="iso-8859-1"?>
<!-- Generator: Adobe Illustrator 19.0.0, SVG Export Plug-In . SVG Version: 6.00 Build 0)  -->
<svg version="1.1" id="Capa_1" xmlns="http://www.w3.org/2000/svg" xmlns:xlink="http://www.w3.org/1999/xlink" x="0px" y="0px"
	 viewBox="0 0 512 512" style="enable-background:new 0 0 512 512;" xml:space="preserve">
<rect x="19.8" style="fill:#DBDBDB;" width="472.4" height="329.52"/>
<g>
	<polygon style="fill:#CCCCCC;" points="161.144,158.344 52.784,329.512 19.8,329.512 19.8,93.112 	"/>
	<polygon style="fill:#CCCCCC;" points="350.856,158.344 459.216,329.512 492.2,329.512 492.2,93.112 	"/>
</g>
<polygon style="fill:#FFFFFF;" points="19.8,113.36 255.304,222.056 492.2,113.36 492.2,20.248 19.8,20.248 "/>
<polygon style="fill:#CCCCCC;" points="19.8,93.112 255.304,201.816 492.2,93.112 492.2,0 19.8,0 "/>
<path d="M319,387.344h-20.416v-73.56c0.232-23.52-18.648-42.768-42.16-43s-42.768,18.648-43,42.16c0,0.28,0,0.56,0,0.832v73.56
	h-20.416v-73.56c-0.28-34.792,27.696-63.224,62.488-63.504S318.72,277.968,319,312.76c0,0.336,0,0.68,0,1.016L319,387.344
	L319,387.344z"/>
<g style="opacity:0.25;">
	<rect x="298.56" y="365.8" width="20.416" height="8.168"/>
</g>
<g style="opacity:0.25;">
	<rect x="192.96" y="365.8" width="20.416" height="8.168"/>
</g>
<g>
	<rect x="174.112" y="373.968" style="fill:#FF0000;" width="163.776" height="103.992"/>
	<rect x="164.688" y="477.968" style="fill:#FF0000;" width="182.632" height="34.032"/>
</g>
<g>
	<circle style="fill:#FFFFFF;" cx="256" cy="428.24" r="20.432"/>
	<rect x="247.288" y="439.272" style="fill:#FFFFFF;" width="17.424" height="37.336"/>
</g>
<g>
</g>
<g>
</g>
<g>
</g>
<g>
</g>
<g>
</g>
<g>
</g>
<g>
</g>
<g>
</g>
<g>
</g>
<g>
</g>
<g>
</g>
<g>
</g>
<g>
</g>
<g>
</g>
<g>
</g>
</svg>
