<?xml version="1.0" encoding="iso-8859-1"?>
<!-- Generator: Adobe Illustrator 19.0.0, SVG Export Plug-In . SVG Version: 6.00 Build 0)  -->
<svg version="1.1" id="Capa_1" xmlns="http://www.w3.org/2000/svg" xmlns:xlink="http://www.w3.org/1999/xlink" x="0px" y="0px"
	 viewBox="0 0 513.408 513.408" style="enable-background:new 0 0 513.408 513.408;" xml:space="preserve">
<rect y="11.004" style="fill:#DBDBDB;" width="412.8" height="287.944"/>
<g>
	<polygon style="fill:#CCCCCC;" points="123.512,149.372 28.816,298.948 0,298.948 0,92.372 	"/>
	<polygon style="fill:#CCCCCC;" points="289.288,149.372 383.984,298.948 412.8,298.948 412.8,92.372 	"/>
</g>
<polygon style="fill:#FFFFFF;" points="0,110.06 205.792,205.052 412.8,110.06 412.8,28.692 0,28.692 "/>
<polygon style="fill:#CCCCCC;" points="0,92.372 205.792,187.356 412.8,92.372 412.8,11.004 0,11.004 "/>
<path style="fill:#FF0000;" d="M389.416,199.156c-46.592,48.96-123.992,37.904-123.992,37.904s0,54.488,0,132.672
	s123.992,132.672,123.992,132.672s123.992-54.488,123.992-132.672s0-132.672,0-132.672S436.016,248.116,389.416,199.156z"/>
<g style="opacity:0.2;">
	<path d="M389.416,242.804c-33.176,34.864-88.296,26.992-88.296,26.992s0,38.808,0,94.488s88.296,94.488,88.296,94.488
		s88.296-38.808,88.296-94.488s0-94.488,0-94.488S422.6,277.668,389.416,242.804z"/>
</g>
<g style="opacity:0.25;">
	<path style="fill:#FFFFFF;" d="M389.416,199.156c-46.592,48.96-123.992,37.904-123.992,37.904v99.816L513.4,258.564v-21.496
		C513.408,237.06,436.016,248.116,389.416,199.156z"/>
</g>
<path style="fill:#FFFFFF;" d="M422.392,344.06h-10.688v-38.504c0.12-12.312-9.76-22.384-22.072-22.504s-22.384,9.76-22.504,22.072
	c0,0.144,0,0.288,0,0.44v38.504H356.44v-38.504c-0.144-18.208,14.496-33.096,32.712-33.24s33.096,14.496,33.24,32.712
	c0,0.176,0,0.352,0,0.528L422.392,344.06L422.392,344.06z"/>
<g style="opacity:0.25;">
	<rect x="411.68" y="332.78" width="10.688" height="4.272"/>
</g>
<g style="opacity:0.25;">
	<rect x="356.44" y="332.78" width="10.688" height="4.272"/>
</g>
<rect x="346.56" y="337.028" width="85.728" height="54.432"/>
<rect x="341.624" y="391.492" width="95.592" height="17.816"/>
<g>
	<circle style="fill:#FFFFFF;" cx="389.416" cy="365.484" r="10.696"/>
	<rect x="384.88" y="371.268" style="fill:#FFFFFF;" width="9.12" height="19.544"/>
</g>
<g>
</g>
<g>
</g>
<g>
</g>
<g>
</g>
<g>
</g>
<g>
</g>
<g>
</g>
<g>
</g>
<g>
</g>
<g>
</g>
<g>
</g>
<g>
</g>
<g>
</g>
<g>
</g>
<g>
</g>
</svg>
