<?xml version="1.0" encoding="iso-8859-1"?>
<!-- Generator: Adobe Illustrator 19.0.0, SVG Export Plug-In . SVG Version: 6.00 Build 0)  -->
<svg version="1.1" id="Capa_1" xmlns="http://www.w3.org/2000/svg" xmlns:xlink="http://www.w3.org/1999/xlink" x="0px" y="0px"
	 viewBox="0 0 512.005 512.005" style="enable-background:new 0 0 512.005 512.005;" xml:space="preserve">
<path style="fill:#303C42;" d="M398.221,64.609l-181.333-64c-2.292-0.812-4.813-0.812-7.104,0l-181.333,64
	c-4.26,1.51-7.115,5.542-7.115,10.063v128c0,165.646,24.563,226.188,187.198,308.188c1.51,0.76,3.156,1.146,4.802,1.146
	c1.646,0,3.292-0.385,4.802-1.146c162.635-82,187.198-142.542,187.198-308.188v-128C405.336,70.151,402.482,66.12,398.221,64.609z"
	/>
<path style="fill:#1E88E5;" d="M213.336,21.984L42.669,82.224v120.448c0,19.303,0.318,36.962,1.115,53.328h169.552V21.984z"/>
<path style="fill:#01579B;" d="M382.888,256c0.797-16.366,1.115-34.025,1.115-53.328V82.224l-170.667-60.24V256H382.888z"/>
<path style="fill:#1E88E5;" d="M213.336,256v233.38C345.47,422.014,377.134,374.145,382.888,256H213.336z"/>
<path style="fill:#01579B;" d="M43.784,256c5.754,118.145,37.418,166.014,169.552,233.38V256H43.784z"/>
<path style="opacity:0.1;enable-background:new    ;" d="M213.336,448C62.898,371.302,42.669,341.286,42.669,182.63v20.042
	c0,158.656,20.229,210.01,170.667,286.708c150.438-76.698,170.667-128.052,170.667-286.708V182.63
	C384.003,341.286,363.773,371.302,213.336,448z"/>
<path style="fill:#303C42;" d="M373.336,277.333c-64.688,0-117.333,52.635-117.333,117.333S308.648,512,373.336,512
	c20.625,0,40.917-5.427,58.667-15.708c5.104-2.948,6.854-9.469,3.896-14.573c-2.979-5.104-9.521-6.875-14.563-3.885
	c-14.521,8.396-31.125,12.833-48,12.833c-52.938,0-96-43.063-96-96s43.063-96,96-96s96,43.063,96,96v10.667
	c0,11.76-9.563,21.333-21.333,21.333c-11.771,0-21.333-9.573-21.333-21.333v-42.667c0-5.896-4.771-10.667-10.667-10.667
	c-2.868,0-5.445,1.16-7.361,2.999c-9.427-8.4-21.711-13.665-35.306-13.665c-29.417,0-53.333,23.927-53.333,53.333
	S343.919,448,373.336,448c15.902,0,30.034-7.132,39.813-18.202C420.878,440.775,433.592,448,448.003,448
	c23.521,0,42.667-19.135,42.667-42.667v-10.667C490.669,329.969,438.023,277.333,373.336,277.333z M373.336,426.667
	c-17.646,0-32-14.354-32-32c0-17.646,14.354-32,32-32c17.646,0,32,14.354,32,32C405.336,412.313,390.982,426.667,373.336,426.667z"
	/>
<linearGradient id="SVGID_1_" gradientUnits="userSpaceOnUse" x1="-47.2066" y1="639.8679" x2="-22.987" y2="628.5741" gradientTransform="matrix(21.3333 0 0 -21.3333 996.2804 13791.7256)">
	<stop  offset="0" style="stop-color:#FFFFFF;stop-opacity:0.2"/>
	<stop  offset="1" style="stop-color:#FFFFFF;stop-opacity:0"/>
</linearGradient>
<path style="fill:url(#SVGID_1_);" d="M402.344,281.112c2.155-23.384,2.992-49.203,2.992-78.44v-128
	c0-4.521-2.854-8.552-7.115-10.063l-181.333-64c-2.292-0.812-4.813-0.812-7.104,0l-181.333,64c-4.26,1.51-7.115,5.542-7.115,10.063
	v128c0,165.646,24.563,226.188,187.198,308.188c1.51,0.76,3.156,1.146,4.802,1.146c1.646,0,3.292-0.385,4.802-1.146
	c26.073-13.146,48.251-25.736,67.694-38.301C307.339,496.691,338.549,512,373.336,512c20.625,0,40.917-5.427,58.667-15.708
	c5.104-2.948,6.854-9.469,3.896-14.573c-2.979-5.104-9.521-6.875-14.563-3.885c-14.521,8.396-31.125,12.833-48,12.833
	c-27.465,0-52.103-11.74-69.617-30.286c12.368-8.902,23.401-17.897,33.009-27.12c9.565,9.077,22.408,14.74,36.608,14.74
	c15.902,0,30.034-7.132,39.813-18.202C420.878,440.775,433.592,448,448.003,448c23.521,0,42.667-19.135,42.667-42.667v-10.667
	C490.669,339.997,453.027,294.077,402.344,281.112z M373.336,426.667c-8.51,0-16.207-3.391-21.945-8.828
	c14.112-16.372,24.673-33.861,32.526-53.233c12.434,4.393,21.419,16.142,21.419,30.061
	C405.336,412.313,390.982,426.667,373.336,426.667z M469.336,405.333c0,11.76-9.563,21.333-21.333,21.333
	c-11.771,0-21.333-9.573-21.333-21.333v-42.667c0-5.896-4.771-10.667-10.667-10.667c-2.868,0-5.445,1.16-7.361,2.999
	c-5.133-4.573-11.167-8.098-17.743-10.469c3.82-12.939,6.746-26.775,8.876-41.697c40.03,11.566,69.561,48.128,69.561,91.833V405.333
	z"/>
<g>
</g>
<g>
</g>
<g>
</g>
<g>
</g>
<g>
</g>
<g>
</g>
<g>
</g>
<g>
</g>
<g>
</g>
<g>
</g>
<g>
</g>
<g>
</g>
<g>
</g>
<g>
</g>
<g>
</g>
</svg>
