<?xml version="1.0" encoding="iso-8859-1"?>
<!-- Generator: Adobe Illustrator 19.0.0, SVG Export Plug-In . SVG Version: 6.00 Build 0)  -->
<svg version="1.1" id="Layer_1" xmlns="http://www.w3.org/2000/svg" xmlns:xlink="http://www.w3.org/1999/xlink" x="0px" y="0px"
	 viewBox="0 0 512 512" style="enable-background:new 0 0 512 512;" xml:space="preserve">
<polygon style="fill:#8AD5DD;" points="0,182.024 256,333.272 0,484.568 "/>
<polygon style="fill:#6CB8BC;" points="0,182.024 46.184,147.112 46.184,209.296 "/>
<polygon style="fill:#8AD5DD;" points="512,182.024 256,333.272 512,484.568 "/>
<polygon style="fill:#6CB8BC;" points="512,182.024 465.816,147.112 465.816,209.296 "/>
<polygon style="fill:#9ADEE2;" points="256,333.272 256,333.272 256,333.272 256,333.272 256,333.272 0,484.568 256,484.568 
	256,484.568 512,484.568 "/>
<polygon style="fill:#FFFFFF;" points="50.184,207.016 50.184,31.432 461.816,31.432 461.816,207.016 256,328.624 "/>
<path style="fill:#E0E0E0;" d="M457.816,35.432v169.296L256,323.984L54.184,204.728V35.432H256H457.816 M465.816,27.432H256H46.184
	v181.864L256,333.272l209.816-123.976L465.816,27.432L465.816,27.432z"/>
<polygon style="fill:#2D2D2D;" points="325.072,69.008 225.664,189.808 183.888,149.168 156.344,179.064 228.888,249.616 
	355.656,95.576 "/>
<g>
</g>
<g>
</g>
<g>
</g>
<g>
</g>
<g>
</g>
<g>
</g>
<g>
</g>
<g>
</g>
<g>
</g>
<g>
</g>
<g>
</g>
<g>
</g>
<g>
</g>
<g>
</g>
<g>
</g>
</svg>
