<?xml version="1.0" encoding="iso-8859-1"?>
<!-- Generator: Adobe Illustrator 19.0.0, SVG Export Plug-In . SVG Version: 6.00 Build 0)  -->
<svg version="1.1" id="Layer_1" xmlns="http://www.w3.org/2000/svg" xmlns:xlink="http://www.w3.org/1999/xlink" x="0px" y="0px"
	 viewBox="0 0 512 512" style="enable-background:new 0 0 512 512;" xml:space="preserve">
<polygon style="fill:#A0F6FA;" points="455.736,173.292 455.736,444.484 399.473,466.989 421.978,173.292 "/>
<path style="fill:#D0FBFD;" d="M316.202,173.292v52.888H56.264V512H388.22l33.758-56.264V173.292H316.202z"/>
<g>
	<polygon style="fill:#50D1DD;" points="388.22,444.484 388.22,512 455.736,444.484 	"/>
	<rect x="56.264" y="173.292" style="fill:#50D1DD;" width="52.888" height="52.888"/>
</g>
<rect x="142.91" y="173.292" style="fill:#FFEAB5;" width="52.888" height="52.888"/>
<rect x="229.556" y="173.292" style="fill:#A0F6FA;" width="52.888" height="52.888"/>
<rect x="56.264" y="86.646" style="fill:#FF9269;" width="52.888" height="52.888"/>
<rect x="142.91" y="86.646" style="fill:#A0F6FA;" width="52.888" height="52.888"/>
<rect x="229.556" y="86.646" style="fill:#FFB082;" width="52.888" height="52.888"/>
<rect x="316.202" y="86.646" style="fill:#FFEAB5;" width="52.888" height="52.888"/>
<rect x="402.848" style="fill:#A0F6FA;" width="52.888" height="52.888"/>
<rect x="142.91" y="259.938" style="fill:#FFDB8A;" width="52.888" height="52.888"/>
<rect x="229.556" y="259.938" style="fill:#FFEAB5;" width="52.888" height="52.888"/>
<rect x="316.202" y="346.585" style="fill:#FF9269;" width="52.888" height="52.888"/>
<rect x="402.848" y="86.646" style="fill:#FFB082;" width="52.888" height="52.888"/>
<rect x="142.91" style="fill:#FFEAB5;" width="52.888" height="52.888"/>
<rect x="229.556" style="fill:#FFDB8A;" width="52.888" height="52.888"/>
<g>
</g>
<g>
</g>
<g>
</g>
<g>
</g>
<g>
</g>
<g>
</g>
<g>
</g>
<g>
</g>
<g>
</g>
<g>
</g>
<g>
</g>
<g>
</g>
<g>
</g>
<g>
</g>
<g>
</g>
</svg>
