<?xml version="1.0" encoding="iso-8859-1"?>
<!-- Generator: Adobe Illustrator 16.0.0, SVG Export Plug-In . SVG Version: 6.00 Build 0)  -->
<!DOCTYPE svg PUBLIC "-//W3C//DTD SVG 1.1//EN" "http://www.w3.org/Graphics/SVG/1.1/DTD/svg11.dtd">
<svg version="1.1" id="Capa_1" xmlns="http://www.w3.org/2000/svg" xmlns:xlink="http://www.w3.org/1999/xlink" x="0px" y="0px"
	 width="317.769px" height="317.769px" viewBox="0 0 317.769 317.769" style="enable-background:new 0 0 317.769 317.769;"
	 xml:space="preserve">
<g>
	<g>
		<path d="M45.481,89.305c2.126,0.467,4.1,0.432,10.162-4.221c2.698-2.075,6.68-5.557,10.355-10.425l1.609-2.134
			c13.772-18.317,46.014-61.204,92.583-58.876c38.409,2.808,65.633,31.805,78.732,83.878c0.445,1.774,0.708,2.859,1.01,3.691
			c1.998,8.515,5.358,19.13,10.197,22.621c1.201,0.861,2.588,1.278,3.963,1.278c2.105,0,4.176-0.977,5.503-2.815
			c2.118-2.929,1.547-6.979-1.225-9.226c-1.342-1.731-3.856-8.981-5.353-15.461c-0.089-0.381-0.212-0.76-0.362-1.121
			c-0.13-0.445-0.37-1.408-0.589-2.271c-2.077-8.253-7.591-30.175-20.964-50.799C213.834,16.798,190.275,2.229,161.09,0.122
			c-0.041,0-0.087,0-0.142-0.007C107.157-2.629,71.84,44.328,56.769,64.383l-1.588,2.103c-4.129,5.457-8.999,8.855-10.686,9.837
			c-0.566,0.224-1.114,0.525-1.629,0.917c-2.11,1.602-3.136,4.324-2.565,6.907C40.873,86.723,42.89,88.746,45.481,89.305z"/>
		<path d="M215.302,115.315c5.12-12.784,5.243-25.995,0.336-36.235c-4.367-9.136-12.519-15.761-23.565-19.144
			c-16.214-4.962-35.871,4.045-53.878,24.674c-0.224,0.253-25.858,27.214-52.778,43.696c-0.2,0.121-19.905,11.941-40.486,17.549
			c-3.605,0.977-5.742,4.71-4.755,8.323c0.985,3.605,4.71,5.744,8.323,4.755c22.389-6.09,43.058-18.492,43.961-19.043
			c29.205-17.879,55.687-46.057,55.911-46.315c10.93-12.523,27.109-24.537,39.73-20.668c7.426,2.271,12.576,6.317,15.304,12.027
			c3.274,6.829,3.019,16.063-0.694,25.336c-6.91,17.268-28.418,38.109-60.566,58.704c-16.127,10.328-56.728,35.673-85.396,47.931
			c-3.441,1.472-5.042,5.459-3.575,8.904c1.101,2.567,3.607,4.117,6.242,4.117c0.883,0,1.793-0.182,2.663-0.548
			c29.602-12.655,70.969-38.475,87.376-48.987C173.863,164.757,205.107,140.775,215.302,115.315z"/>
		<path d="M106.098,64.685c-3.073,3.396-5.838,7.031-8.817,10.506c-3.893,4.56-8.15,8.81-12.594,12.826
			c-4.573,4.127-8.266,7.079-13.666,10.169c-5.717,3.287-11.546,6.606-17.474,9.486c-2.031,0.999-3.783,1.644-6.076,2.333
			c-3.539,1.063-5.735,4.711-4.738,8.336c0.963,3.498,4.805,5.804,8.345,4.738c6.935-2.081,13.215-5.652,19.472-9.206
			c5.286-3.01,10.542-5.715,15.401-9.412c9.466-7.2,17.617-15.612,25.112-24.811c3.032-3.725,6.283-7.274,9.673-10.684
			c1.846-1.853,3.763-3.655,5.715-5.407c1.02-0.912,2.053-1.802,3.101-2.685c0.527-0.444,1.069-0.883,1.602-1.321
			c0.137-0.115,1.193-0.939,1.465-1.157c4.717-3.619,9.746-6.835,15.045-9.556c4.996-2.565,10.012-4.367,16.098-5.631
			c2.02-0.424,2.457-0.465,3.97-0.623c3.676-0.383,6.783-2.801,6.783-6.785c0-3.41-3.094-7.159-6.783-6.784
			C143.216,31.574,122.252,46.891,106.098,64.685z"/>
		<path d="M53.33,194.523c14.729-5.058,90.366-33.298,132.716-92.665c2.17-3.044,1.465-7.281-1.577-9.45
			c-3.053-2.177-7.289-1.472-9.459,1.581c-39.949,55.995-112.035,82.89-126.081,87.708c-0.301,0.103-0.488,0.171-0.553,0.202
			c-3.498,1.321-5.265,5.232-3.936,8.736c1.026,2.711,3.599,4.381,6.338,4.381c0.775,0,1.554-0.134,2.313-0.407L53.33,194.523z"/>
		<path d="M141.729,223.132c1.567-7.275,4.173-14.161,7.667-20.506c-8.15,4.559-18.618,11.358-31.79,20.047
			c-16.933,11.156-36.12,23.805-44.466,26.057c-3.614,0.972-5.758,4.695-4.784,8.31c0.812,3.024,3.554,5.02,6.543,5.02
			c0.582,0,1.177-0.075,1.766-0.232c10.457-2.812,28.89-14.965,48.405-27.829C130.403,230.476,136.171,226.677,141.729,223.132z"/>
		<path d="M140.572,248.409c-9.212,5.879-21.14,14.353-36.17,25.334c-3.614,2.635-6.742,4.918-8.905,6.454
			c-3.059,2.156-3.785,6.386-1.629,9.445c1.321,1.865,3.416,2.864,5.544,2.864c1.355,0,2.716-0.403,3.907-1.239
			c2.253-1.594,5.414-3.9,9.084-6.577c6.769-4.941,19.97-14.578,31.272-22.11C142.203,258.032,141.161,253.292,140.572,248.409z"/>
		<path d="M153.282,282.171c-11.841,4.031-28.313,20.595-31.717,24.099c-2.601,2.7-2.534,6.988,0.158,9.589
			c1.314,1.273,3.018,1.91,4.717,1.91c1.773,0,3.545-0.691,4.875-2.061c9.083-9.384,21.982-20.04,26.985-20.909
			c2.293-0.39,5.148,0.575,8.393,2.307C161.598,292.739,157.083,287.722,153.282,282.171z"/>
		<path d="M257.627,161.848c-5.653-2.389-11.563-4.892-16.316-8.854c-5.236-4.353-7.673-10.075-8.761-16.682
			c-1.424-8.617-14.489-4.946-13.079,3.6c1.923,11.663,8.274,19.767,16.84,25.817c6.971,1.903,13.565,4.771,19.603,8.467
			c1.643-0.353,3.121-1.314,4.147-3.066C261.744,168.254,261.032,163.292,257.627,161.848z"/>
		<path d="M198.53,160.685c-2.457,0.678-4.702,3.148-5.041,5.797c4.024-1.26,8.192-2.177,12.474-2.752
			C204.354,161.281,201.727,159.802,198.53,160.685z"/>
		<path d="M212.13,169.808c-36.228,0-65.704,29.472-65.704,65.706c0,36.227,29.477,65.705,65.704,65.705
			c36.233,0,65.705-29.479,65.705-65.705C277.835,199.284,248.363,169.808,212.13,169.808z M212.13,287.202
			c-28.5,0-51.687-23.188-51.687-51.688c0-28.507,23.187-51.688,51.687-51.688c28.499,0,51.688,23.182,51.688,51.688
			C263.818,264.013,240.629,287.202,212.13,287.202z"/>
		<path d="M230.411,217.171c0-10.082-8.2-18.288-18.278-18.288s-18.277,8.206-18.277,18.288v8.688h-4.052v39.94h44.655v-39.94
			h-4.048V217.171z M225.387,225.86h-26.511v-8.688c0-7.317,5.944-13.258,13.254-13.258s13.257,5.94,13.257,13.258V225.86z"/>
	</g>
</g>
<g>
</g>
<g>
</g>
<g>
</g>
<g>
</g>
<g>
</g>
<g>
</g>
<g>
</g>
<g>
</g>
<g>
</g>
<g>
</g>
<g>
</g>
<g>
</g>
<g>
</g>
<g>
</g>
<g>
</g>
</svg>
