<?xml version="1.0" encoding="iso-8859-1"?>
<!-- Generator: Adobe Illustrator 19.0.0, SVG Export Plug-In . SVG Version: 6.00 Build 0)  -->
<svg version="1.1" id="Layer_1" xmlns="http://www.w3.org/2000/svg" xmlns:xlink="http://www.w3.org/1999/xlink" x="0px" y="0px"
	 viewBox="0 0 512 512" style="enable-background:new 0 0 512 512;" xml:space="preserve">
<g>
	<circle style="fill:#FFEED0;" cx="340.849" cy="156.737" r="33.834"/>
	<circle style="fill:#FFEED0;" cx="104.009" cy="156.737" r="33.834"/>
</g>
<circle style="fill:#FFE9C4;" cx="222.429" cy="156.737" r="109.961"/>
<path style="fill:#D9DDE2;" d="M181.195,199.033h-60.267v-67.669h93.044c4.671,0,8.459,3.787,8.459,8.459v17.974
	C222.43,180.571,203.968,199.033,181.195,199.033z"/>
<g>
	<path style="fill:#69788D;" d="M213.971,131.364h-17.446l-67.669,67.669h52.337c22.774,0,41.236-18.462,41.236-41.236v-17.974
		C222.43,135.151,218.644,131.364,213.971,131.364z"/>
	<polygon style="fill:#69788D;" points="120.927,131.364 120.927,183.702 173.265,131.364 	"/>
</g>
<path style="fill:#D9DDE2;" d="M263.666,199.033h60.267v-67.669h-93.044c-4.671,0-8.459,3.787-8.459,8.459v17.974
	C222.43,180.571,240.892,199.033,263.666,199.033z"/>
<g>
	<path style="fill:#69788D;" d="M230.889,131.364c-4.671,0-8.459,3.787-8.459,8.459v17.974c0,17.727,11.189,32.838,26.888,38.666
		l65.099-65.099C314.417,131.364,230.889,131.364,230.889,131.364z"/>
	<polygon style="fill:#69788D;" points="323.933,199.033 323.933,144.052 268.952,199.033 	"/>
</g>
<path style="fill:#FFDB66;" d="M222.43,4.489C104.982-20.89,86.604,66.329,87.096,140.738c0.233,35.145,13.866,67.105,36.043,91.036
	c5.246,5.662,14.706,2.008,14.706-5.713V114.447c8.505-3.544,23.312-8.459,42.293-8.459c9.215,0,24.772,1.158,42.293,8.459
	c17.521-7.301,33.078-8.459,42.293-8.459c18.981,0,33.788,4.914,42.293,8.459v111.615c0,7.719,9.459,11.375,14.706,5.713
	c22.176-23.931,35.809-55.891,36.043-91.036C358.258,66.329,339.878-20.89,222.43,4.489z"/>
<path style="fill:#F7C14D;" d="M138.773,114.069c4.955-46.296,29.566-86.706,65.327-112.729
	C103.05-11.394,86.63,70.388,87.096,140.738c0.233,35.145,13.866,67.105,36.043,91.036c5.246,5.662,14.706,2.008,14.706-5.713
	V114.447C138.14,114.324,138.462,114.196,138.773,114.069z"/>
<rect x="120.926" y="266.698" style="fill:#ECEEF1;" width="203.005" height="245.298"/>
<rect x="197.053" y="317.45" style="fill:#56677E;" width="50.751" height="101.503"/>
<rect x="197.053" y="317.45" style="fill:#435670;" width="50.751" height="16.917"/>
<polygon style="fill:#56677E;" points="247.806,317.453 197.054,317.453 188.596,266.701 256.264,266.701 "/>
<path style="fill:#69788D;" d="M323.933,266.701h-21.616L222.43,410.497l-79.887-143.796h-21.616
	c-23.357,0-42.293,18.936-42.293,42.293v194.547c0,4.671,3.787,8.459,8.459,8.459h270.674c4.671,0,8.459-3.787,8.459-8.459V308.994
	C366.226,285.636,347.291,266.701,323.933,266.701z"/>
<g>
	<circle style="fill:#435670;" cx="222.429" cy="427.411" r="8.459"/>
	<circle style="fill:#435670;" cx="222.429" cy="452.787" r="8.459"/>
	<circle style="fill:#435670;" cx="222.429" cy="478.162" r="8.459"/>
</g>
<g>
	<rect x="417.505" y="4.486" style="fill:#56677E;" width="15.86" height="160.713"/>
	<path style="fill:#56677E;" d="M450.819,215.422c-2.563,0-5.077-1.24-6.605-3.533c-2.43-3.644-1.445-8.567,2.199-10.996
		l25.376-16.917c3.146-2.097,7.333-1.682,10.005,0.991l16.917,16.917c3.097,3.098,3.097,8.118,0,11.215
		c-3.097,3.096-8.118,3.096-11.214,0l-12.32-12.32l-19.966,13.311C453.858,214.99,452.331,215.422,450.819,215.422z"/>
	<path style="fill:#56677E;" d="M501.563,249.256c-2.029,0-4.059-0.774-5.607-2.322l-13.452-13.452l-20.727,6.909
		c-4.154,1.382-8.646-0.861-10.031-5.015c-1.385-4.155,0.861-8.647,5.016-10.031l25.376-8.459c2.848-0.948,5.991-0.207,8.115,1.916
		l16.917,16.917c3.097,3.098,3.097,8.118,0,11.215C505.622,248.481,503.593,249.256,501.563,249.256z"/>
	<path style="fill:#56677E;" d="M493.104,274.631c-2.029,0-4.059-0.774-5.607-2.322l-12.876-12.876l-11.805,5.902
		c-3.917,1.959-8.681,0.371-10.639-3.546c-1.959-3.917-0.371-8.681,3.546-10.64l16.917-8.459c3.05-1.527,6.739-0.928,9.153,1.484
		l16.917,16.917c3.097,3.098,3.097,8.118,0,11.215C497.163,273.856,495.134,274.631,493.104,274.631z"/>
	<path style="fill:#56677E;" d="M400.052,215.422c-1.512,0-3.04-0.431-4.391-1.333l-19.966-13.311l-12.32,12.32
		c-3.097,3.096-8.118,3.096-11.214,0c-3.097-3.098-3.097-8.118,0-11.215l16.917-16.917c2.673-2.671,6.862-3.087,10.005-0.991
		l25.376,16.917c3.645,2.43,4.629,7.353,2.199,10.996C405.131,214.182,402.615,215.422,400.052,215.422z"/>
	<path style="fill:#56677E;" d="M349.309,249.256c-2.029,0-4.059-0.774-5.607-2.322c-3.097-3.098-3.097-8.118,0-11.215
		l16.917-16.917c2.123-2.123,5.264-2.865,8.115-1.916l25.376,8.459c4.155,1.385,6.4,5.877,5.016,10.031
		c-1.385,4.155-5.878,6.398-10.031,5.015l-20.727-6.909l-13.452,13.452C353.368,248.481,351.339,249.256,349.309,249.256z"/>
	<path style="fill:#56677E;" d="M357.767,274.631c-2.029,0-4.059-0.774-5.607-2.322c-3.097-3.098-3.097-8.118,0-11.215
		l16.917-16.917c2.414-2.412,6.101-3.012,9.153-1.484l16.917,8.459c3.917,1.959,5.505,6.721,3.546,10.64
		c-1.958,3.918-6.721,5.507-10.639,3.546l-11.805-5.902l-12.876,12.876C361.826,273.856,359.797,274.631,357.767,274.631z"/>
</g>
<circle style="fill:#DB6B5E;" cx="425.435" cy="182.113" r="25.376"/>
<ellipse style="fill:#FF8C78;" cx="425.435" cy="241.323" rx="42.293" ry="50.751"/>
<path style="fill:#DB6B5E;" d="M433.894,275.16c-23.357,0-42.293-22.722-42.293-50.751c0-6.015,0.878-11.783,2.478-17.137
	c-6.795,9.005-10.937,20.949-10.937,34.054c0,28.03,18.936,50.751,42.293,50.751c18.345,0,33.957-14.019,39.814-33.614
	C457.513,268.717,446.33,275.16,433.894,275.16z"/>
<circle style="fill:#FFD6C4;" cx="433.893" cy="224.405" r="16.917"/>
<path style="fill:#2C9DD4;" d="M129.386,342.828c-16.549-3.065-29.401-9.171-37.974-14.236c-2.67-1.578-5.969-1.578-8.638,0
	c-8.573,5.065-21.424,11.172-37.974,14.236c-12.803,2.372-24.121,2.237-32.957,1.336c-4.996-0.51-9.336,3.388-9.336,8.41v89.719
	c0,1.355,0.319,2.688,0.946,3.89c5.298,10.174,15.311,26.081,32.888,40.44c18.569,15.168,37.25,21.804,48.602,24.824
	c1.412,0.375,2.886,0.375,4.298,0c11.351-3.02,30.033-9.655,48.602-24.824c17.578-14.359,27.59-30.267,32.888-40.44
	c0.626-1.202,0.946-2.534,0.946-3.89v-89.72c0-5.022-4.34-8.92-9.336-8.41C153.507,345.065,142.189,345.199,129.386,342.828z"/>
<path style="fill:#3CBDE8;" d="M87.093,494.488c-14.556-4.197-28.359-11.417-40.049-20.967
	c-11.174-9.129-20.691-20.622-27.619-33.337v-78.569c1.419,0.045,2.837,0.068,4.249,0.068c8.105,0,16.249-0.748,24.206-2.221
	c13.754-2.546,26.921-7.209,39.213-13.878c12.29,6.67,25.458,11.331,39.213,13.878c7.957,1.474,16.102,2.221,24.206,2.221
	c1.413,0,2.83-0.022,4.249-0.068v78.569c-6.928,12.714-16.445,24.208-27.62,33.338C115.453,483.071,101.647,490.293,87.093,494.488z
	"/>
<g>
	<path style="fill:#2A7DB5;" d="M87.093,435.873c-4.671,0-8.459-3.787-8.459-8.459v-42.293c0-4.671,3.787-8.459,8.459-8.459
		s8.459,3.787,8.459,8.459v42.293C95.552,432.085,91.765,435.873,87.093,435.873z"/>
	<path style="fill:#2A7DB5;" d="M87.093,462.306c-4.671,0-8.459-3.787-8.459-8.459v-1.057c0-4.671,3.787-8.459,8.459-8.459
		s8.459,3.787,8.459,8.459v1.057C95.552,458.518,91.765,462.306,87.093,462.306z"/>
</g>
<g>
</g>
<g>
</g>
<g>
</g>
<g>
</g>
<g>
</g>
<g>
</g>
<g>
</g>
<g>
</g>
<g>
</g>
<g>
</g>
<g>
</g>
<g>
</g>
<g>
</g>
<g>
</g>
<g>
</g>
</svg>
