<?xml version="1.0" encoding="iso-8859-1"?>
<!-- Generator: Adobe Illustrator 19.0.0, SVG Export Plug-In . SVG Version: 6.00 Build 0)  -->
<svg version="1.1" id="Layer_1" xmlns="http://www.w3.org/2000/svg" xmlns:xlink="http://www.w3.org/1999/xlink" x="0px" y="0px"
	 viewBox="0 0 422.89 422.89" style="enable-background:new 0 0 422.89 422.89;" xml:space="preserve">
<g>
	<path style="fill:#AFDAF9;" d="M391.928,165c-0.3-0.02-0.61-0.04-0.91-0.07c-29.82-2.25-54.92-9.48-73.61-16.84
		c-6.12-2.4-11.56-4.82-16.24-7.08c-13.24-6.39-20.53-11.51-20.53-11.51s-26.35,18.52-69.89,29.05c-2.46,0.59-4.98,1.16-7.56,1.7
		c-15.47,3.25-32.88,5.4-51.86,5.4c0,0-0.92,7.04-1.41,18.85c-0.18,4.38-0.3,9.42-0.29,15c0.04,18.55,1.51,43.08,6.96,69.34
		c1.01,4.84,2.15,9.73,3.45,14.65c8.38,31.97,23.13,65.27,48.62,92.66c2.32,2.5,4.74,4.95,7.25,7.35c-4.19,0.3-8.4,0.47-12.66,0.5
		h-1.43c-2.28-0.02-4.56-0.07-6.82-0.17c-10.98-0.47-21.73-1.85-32.16-4.09c-40.68-8.7-76.57-30.29-103.2-60.3
		c-3.34-3.75-6.52-7.62-9.55-11.63c-22.98-30.33-37.15-67.7-38.71-108.31c-0.09-2.49-0.14-4.99-0.14-7.5s0.05-5.01,0.14-7.5
		c1.56-40.61,15.73-77.97,38.7-108.3c3.03-4.01,6.22-7.89,9.55-11.64c26.64-30,62.53-51.59,103.21-60.3
		c5.25-1.13,10.58-2.04,15.99-2.73c7.54-0.95,15.21-1.47,22.99-1.53h1.43c13.37,0.09,26.41,1.56,38.99,4.26
		c40.67,8.71,76.57,30.31,103.2,60.31c1.67,1.88,3.3,3.79,4.89,5.73c1.59,1.94,3.14,3.91,4.65,5.91
		c8.97,11.84,16.59,24.74,22.63,38.49c0.29,0.64,0.57,1.29,0.85,1.94c4.8,11.23,8.55,23,11.15,35.21c0.25,1.16,0.49,2.33,0.71,3.5
		c0.29,1.49,0.56,2.99,0.82,4.5C391.418,161.56,391.688,163.28,391.928,165z"/>
	<path style="fill:#97C9E8;" d="M354.978,76.21c-1.51-2-3.06-3.97-4.65-5.91c-1.59-1.94-3.22-3.85-4.89-5.73
		c-12.29,8.57-26.71,15.92-42.96,21.91c-9.65-26.24-22.84-48.47-38.43-64.61c-6.89-7.13-14.21-13.03-21.81-17.61
		c-12.58-2.7-25.62-4.17-38.99-4.26h-1.43c-13.36,0.1-26.4,1.56-38.98,4.26c-7.6,4.58-14.91,10.48-21.81,17.61
		c-15.6,16.14-28.8,38.38-38.44,64.61c-16.24-5.99-30.67-13.34-42.96-21.92c-3.33,3.75-6.52,7.63-9.55,11.64l0.35,0.24
		c13.59,9.56,29.51,17.71,47.4,24.27c-7.84,25.84-12.25,54.51-12.9,83.79h-73.55c-0.09,2.49-0.14,4.99-0.14,7.5s0.05,5.01,0.14,7.5
		h73.55c0.65,29.29,5.06,57.97,12.9,83.8c-17.89,6.56-33.81,14.71-47.4,24.27l-0.34,0.24c3.03,4.01,6.21,7.88,9.55,11.63
		c12.29-8.57,26.71-15.92,42.95-21.92c9.66,26.25,22.86,48.48,38.44,64.62c6.9,7.14,14.21,13.03,21.81,17.6
		c12.58,2.7,25.62,4.16,38.98,4.26h1.43c4.26-0.03,8.47-0.2,12.66-0.5c-2.51-2.4-4.93-4.85-7.25-7.35l-4.35,0.36
		c-0.36,0.01-0.7,0-1.06,0.01l-1.04-0.01h-0.22c-34.06-0.75-66.25-32.63-85.16-83.73c13.48-4.05,27.71-7.14,42.42-9.18l0.79-0.11
		l6.64-0.91l-2.06-14.86l-7.42,1.03c-0.2,0.03-0.41,0.06-0.61,0.09c-15.42,2.16-30.36,5.42-44.53,9.71
		c-7.33-24.34-11.49-51.38-12.12-79.05h57.25v-15h-57.25c0.63-27.66,4.79-54.7,12.12-79.04c25.83,7.81,54.47,12.22,83.69,12.86
		v41.93h15v-41.96c28.73-0.76,56.85-5.15,82.26-12.83c3.42,11.33,6.16,23.23,8.16,35.55c0.26,1.6,0.51,3.21,0.75,4.83l1.09,7.42
		l14.84-2.17l-0.44-3l-0.65-4.42c-2.18-14.92-5.38-29.33-9.51-42.96c17.89-6.56,33.81-14.71,47.4-24.27L354.978,76.21z
		 M195.748,103.32c-27.6-0.64-54.59-4.78-78.92-12.09c17.73-47.97,47.19-78.99,78.92-83.23V103.32z M210.748,103.28V8.22
		c31.18,4.96,60.02,35.76,77.49,83.01C264.338,98.41,237.858,102.53,210.748,103.28z"/>
	<path style="opacity:0.23;fill:#808080;enable-background:new    ;" d="M391.138,159.85c-0.26-1.51-0.53-3.01-0.82-4.5
		c-0.22-1.17-0.46-2.34-0.71-3.5c-2.6-12.21-6.35-23.98-11.15-35.21c-0.28-0.65-0.56-1.3-0.85-1.94
		c-45.28,18.6-116.97-1.5-116.97-1.5s-51.44,38.65-129.31,38.65c0,0-18.06,147.32,63.67,231.98c2.26,0.1,4.54,0.15,6.82,0.17h1.43
		c4.26-0.03,8.47-0.2,12.66-0.5c-2.51-2.4-4.93-4.85-7.25-7.35c-25.49-27.39-40.24-60.69-48.62-92.66
		c-1.3-4.92-2.44-9.81-3.45-14.65c-5.45-26.26-6.92-50.79-6.96-69.34c-0.01-5.58,0.11-10.62,0.29-15
		c0.49-11.81,1.41-18.85,1.41-18.85c18.98,0,36.39-2.15,51.86-5.4c2.58-0.54,5.1-1.11,7.56-1.7c43.54-10.53,69.89-29.05,69.89-29.05
		s7.29,5.12,20.53,11.51c4.68,2.26,10.12,4.68,16.24,7.08c18.69,7.36,43.79,14.59,73.61,16.84
		C390.988,164.31,391.028,162.49,391.138,159.85z"/>
	
		<ellipse transform="matrix(-0.3265 -0.9452 0.9452 -0.3265 -157.906 447.6255)" style="opacity:0.23;fill:#F2F2F2;enable-background:new    ;" cx="80.525" cy="280.071" rx="38.681" ry="27.713"/>
	<path style="opacity:0.23;fill:#F2F2F2;enable-background:new    ;" d="M378.458,116.64c-3.26,0.15-6.53,0.22-9.83,0.22
		c-82.56,0-154.19-46.81-189.8-115.33c7.54-0.95,15.21-1.47,22.99-1.53h1.43c13.37,0.09,26.41,1.56,38.99,4.26
		c40.67,8.71,76.57,30.31,103.2,60.31c1.67,1.88,3.3,3.79,4.89,5.73c1.59,1.94,3.14,3.91,4.65,5.91
		C364.368,88.6,372.278,102.16,378.458,116.64z"/>
	<path style="fill:#EA7D68;" d="M409.958,165.65c-6.18,0-12.19-0.23-18.03-0.65c-11.19-0.8-21.72-2.31-31.5-4.28
		c-49.41-9.87-79.79-31.22-79.79-31.22s-17.14,12.04-46.6,22.22c-21.59,7.47-49.78,13.93-82.71,13.93c0,0-8.08,61.64,11.03,126.16
		c9.56,32.3,25.94,65.32,53.55,91.69c6.23,5.95,13.02,11.56,20.45,16.75c12.82,8.95,27.49,16.64,44.28,22.64
		C436.368,367.27,409.958,165.65,409.958,165.65z"/>
	<path style="opacity:0.23;fill:#333333;enable-background:new    ;" d="M379.638,196c0.15,18.39-1.16,44.53-7.52,72.06
		c-13.72,59.37-44.47,99.83-91.48,120.44c-47.01-20.61-77.76-61.07-91.47-120.44c-6.36-27.52-7.68-53.66-7.52-72.06
		c44.66-4.82,79.25-19.31,98.99-29.54C300.388,176.69,334.978,191.18,379.638,196z"/>
	<path style="fill:#F9A18A;" d="M280.638,378.615c-42.224-19.883-70.037-57.737-82.701-112.58
		c-5.379-23.277-6.996-45.546-7.26-62.07c38.656-5.253,69.486-17.26,89.962-27.416c20.484,10.155,51.321,22.162,89.966,27.415
		c-0.271,16.555-1.891,38.843-7.256,62.069C350.674,320.879,322.859,358.732,280.638,378.615z"/>
	<path style="opacity:0.23;fill:#F2F2F2;enable-background:new    ;" d="M280.638,422.89c-16.79-6-31.46-13.69-44.28-22.64
		c58.1-75.62,99.46-157.26,124.07-239.53c9.78,1.97,20.31,3.48,31.5,4.28c5.84,0.42,11.85,0.65,18.03,0.65
		C409.958,165.65,436.368,367.27,280.638,422.89z"/>
	<path style="opacity:0.23;fill:#F2F2F2;enable-background:new    ;" d="M234.038,151.72c-14.35,34.18-40.59,92.17-71.68,140.09
		c-19.11-64.52-11.03-126.16-11.03-126.16C184.258,165.65,212.448,159.19,234.038,151.72z"/>
</g>
<g>
</g>
<g>
</g>
<g>
</g>
<g>
</g>
<g>
</g>
<g>
</g>
<g>
</g>
<g>
</g>
<g>
</g>
<g>
</g>
<g>
</g>
<g>
</g>
<g>
</g>
<g>
</g>
<g>
</g>
</svg>
