<?xml version="1.0" encoding="iso-8859-1"?>
<!-- Generator: Adobe Illustrator 19.0.0, SVG Export Plug-In . SVG Version: 6.00 Build 0)  -->
<svg version="1.1" id="Capa_1" xmlns="http://www.w3.org/2000/svg" xmlns:xlink="http://www.w3.org/1999/xlink" x="0px" y="0px"
	 viewBox="0 0 512.032 512.032" style="enable-background:new 0 0 512.032 512.032;" xml:space="preserve">
<path d="M26.704,388.744V98.512c0-5.016,4.296-9.312,9.312-9.312h440c5.016,0,9.312,4.296,9.312,9.312v290.224H26.704V388.744z"/>
<g>
	<path style="fill:#CCCCCC;" d="M485.328,388.744v37.264c0,5.016-4.296,9.312-9.312,9.312h-440c-5.016,0-9.312-4.296-9.312-9.312
		v-37.264H485.328z"/>
	<rect x="157.84" y="501.28" style="fill:#CCCCCC;" width="196.352" height="10.752"/>
</g>
<polygon style="fill:#999999;" points="321.224,501.248 190.808,501.248 200.12,435.32 311.912,435.32 "/>
<rect x="45.336" y="107.832" style="fill:#FFFFFF;" width="421.368" height="262.28"/>
<polygon style="fill:#666666;" points="311.912,435.32 200.12,435.32 194.92,472.12 313.584,447.168 "/>
<g>
	<path style="fill:#999999;" d="M344.92,174.616h-8v-8h8V174.616z M328.92,174.616h-8v-8h8V174.616z M312.92,174.616h-8v-8h8
		V174.616z M296.92,174.616h-8v-8h8V174.616z M280.92,174.616h-8v-8h8V174.616z M264.92,174.616h-8v-8h8V174.616z M248.92,174.616
		h-8v-8h8V174.616z M232.92,174.616h-8v-8h8V174.616z M216.92,174.616h-8v-8h8V174.616z M200.92,174.616h-8v-8h8V174.616z
		 M184.92,174.616h-8v-8h8V174.616z M168.92,174.616h-8v-8h8V174.616z M152.92,174.616h-8v-8h8V174.616z M136.92,174.616h-8v-8h8
		V174.616z M120.92,174.616h-8v-8h8V174.616z M104.92,174.616h-8v-8h8V174.616z M88.92,174.616h-8v-8h8V174.616z"/>
	<path style="fill:#999999;" d="M431.112,273.52h-8v-8h8V273.52z M415.112,273.52h-8v-8h8V273.52z M399.112,273.52h-8v-8h8V273.52z
		 M383.112,273.52h-8v-8h8V273.52z M367.112,273.52h-8v-8h8V273.52z M351.112,273.52h-8v-8h8V273.52z M335.112,273.52h-8v-8h8
		V273.52z M319.112,273.52h-7.216v-8h7.216V273.52z"/>
	<path style="fill:#999999;" d="M326.352,323.2h-8v-8h8V323.2z M310.352,323.2h-8v-8h8V323.2z M294.352,323.2h-8v-8h8V323.2z
		 M278.352,323.2h-8v-8h8V323.2z M262.352,323.2h-8v-8h8V323.2z M246.352,323.2h-8v-8h8V323.2z M230.352,323.2h-8v-8h8V323.2z
		 M214.352,323.2h-8v-8h8V323.2z M198.352,323.2h-8v-8h8V323.2z"/>
</g>
<polyline style="fill:#666666;" points="253.848,96.744 93.672,256.912 93.672,291.072 111.36,308.76 161.92,308.184 
	162.536,277.032 192.56,277.56 191.944,244.536 225.576,244.536 291.168,178.944 "/>
<g>
	
		<rect x="70.691" y="219.215" transform="matrix(-0.7071 0.7071 -0.7071 -0.7071 466.5524 251.2826)" style="fill:#FF0000;" width="221.086" height="6.104"/>
	<path style="fill:#FF0000;" d="M315.448,187.936c-24.688,0-47.904-9.616-65.36-27.072s-27.08-40.672-27.08-65.368
		c0-24.688,9.616-47.904,27.08-65.36s40.672-27.08,65.36-27.08c24.696,0,47.904,9.616,65.368,27.08
		c17.456,17.456,27.08,40.672,27.08,65.36c0,24.696-9.616,47.904-27.08,65.368C363.36,178.32,340.144,187.936,315.448,187.936z"/>
	<path style="fill:#FF0000;" d="M315.448,6.104c23.88,0,46.328,9.296,63.208,26.184c34.848,34.848,34.848,91.56,0,126.416
		c-16.88,16.88-39.328,26.184-63.208,26.184s-46.328-9.296-63.208-26.184c-34.848-34.848-34.848-91.56,0-126.416
		C269.128,15.408,291.576,6.104,315.448,6.104 M315.448,0c-24.44,0-48.88,9.32-67.52,27.968c-37.296,37.296-37.296,97.752,0,135.048
		c18.648,18.648,43.088,27.968,67.52,27.968c24.44,0,48.88-9.32,67.52-27.968c37.296-37.296,37.296-97.752,0-135.048
		C364.328,9.328,339.888,0,315.448,0L315.448,0z"/>
</g>
<ellipse style="fill:#FFFFFF;" cx="341.391" cy="69.553" rx="22.768" ry="22.768"/>
<g>
</g>
<g>
</g>
<g>
</g>
<g>
</g>
<g>
</g>
<g>
</g>
<g>
</g>
<g>
</g>
<g>
</g>
<g>
</g>
<g>
</g>
<g>
</g>
<g>
</g>
<g>
</g>
<g>
</g>
</svg>
