<?xml version="1.0" encoding="iso-8859-1"?>
<!-- Generator: Adobe Illustrator 19.0.0, SVG Export Plug-In . SVG Version: 6.00 Build 0)  -->
<svg version="1.1" id="Layer_1" xmlns="http://www.w3.org/2000/svg" xmlns:xlink="http://www.w3.org/1999/xlink" x="0px" y="0px"
	 viewBox="0 0 511.733 511.733" style="enable-background:new 0 0 511.733 511.733;" xml:space="preserve">
<polygon style="fill:#CDD6E0;" points="172.8,229.067 185.6,241.867 1.067,426.4 2.133,511.733 85.333,511.733 85.333,511.733 
	85.333,460.533 137.6,460.533 137.6,408.267 188.8,408.267 270.933,327.2 282.667,340 361.6,261.067 251.733,151.2 "/>
<path style="fill:#FF7058;" d="M465.067,45.6c-60.8-60.8-160-60.8-221.867,0s-60.8,160,0,221.867s160,60.8,221.867,0
	C525.867,205.6,525.867,106.4,465.067,45.6z M434.133,173.6l-97.067-97.067c26.667-26.667,70.4-26.667,97.067,0
	S460.8,146.933,434.133,173.6z"/>
<rect x="104.082" y="239.568" transform="matrix(0.7071 0.7071 -0.7071 0.7071 284.882 26.0341)" style="fill:#ACB3BA;" width="13.867" height="234.664"/>
<g>
</g>
<g>
</g>
<g>
</g>
<g>
</g>
<g>
</g>
<g>
</g>
<g>
</g>
<g>
</g>
<g>
</g>
<g>
</g>
<g>
</g>
<g>
</g>
<g>
</g>
<g>
</g>
<g>
</g>
</svg>
