<?xml version="1.0" encoding="iso-8859-1"?>
<!-- Generator: Adobe Illustrator 19.0.0, SVG Export Plug-In . SVG Version: 6.00 Build 0)  -->
<svg version="1.1" id="Layer_1" xmlns="http://www.w3.org/2000/svg" xmlns:xlink="http://www.w3.org/1999/xlink" x="0px" y="0px"
	 viewBox="0 0 512.001 512.001" style="enable-background:new 0 0 512.001 512.001;" xml:space="preserve">
<path style="fill:#FFAD61;" d="M410.582,184.231V28.438c0-10.073-8.165-18.239-18.239-18.239H119.659
	c-10.073,0-18.239,8.165-18.239,18.239v155.793c0,10.073,8.165,18.239,18.239,18.239h77.682c10.073,0,18.239,8.165,18.239,18.239
	v111.762l80.841-80.841V220.71c0-10.073,8.165-18.239,18.239-18.239h77.682C402.416,202.471,410.582,194.304,410.582,184.231z"/>
<path style="fill:#BCC987;" d="M233.819,501.801h44.363c10.073,0,18.239-8.165,18.239-18.239v-3.942
	c0-10.073,8.165-18.239,18.239-18.239h25.792c10.073,0,18.239-8.165,18.239-18.239v-17.385c0-10.073-8.165-18.239-18.239-18.239
	h-25.792c-10.073,0-18.239-8.165-18.239-18.239l0,0c0-10.073,8.165-18.239,18.239-18.239h25.792
	c10.073,0,18.239-8.165,18.239-18.239v-17.385c0-10.073-8.165-18.239-18.239-18.239h-25.792c-10.073,0-18.239-8.165-18.239-18.239
	v-47.308l-80.841,80.841v151.09C215.58,493.635,223.746,501.801,233.819,501.801z"/>
<g>
	<path style="fill:#4D3D36;" d="M306.62,220.709c0-4.434,3.606-8.04,8.04-8.04h77.683c15.681,0,28.438-12.757,28.438-28.438V28.438
		C420.782,12.757,408.025,0,392.343,0H119.658c-15.681,0-28.438,12.757-28.438,28.438v155.793c0,15.681,12.757,28.438,28.438,28.438
		h77.683c4.434,0,8.04,3.606,8.04,8.04v262.853c0,15.681,12.757,28.438,28.438,28.438h44.362c15.681,0,28.438-12.757,28.438-28.438
		v-3.942c0-4.434,3.606-8.04,8.04-8.04h25.792c15.681,0,28.438-12.757,28.438-28.438v-17.385c0-15.681-12.757-28.438-28.438-28.438
		H314.66c-4.434,0-8.04-3.606-8.04-8.04c0-4.434,3.606-8.04,8.04-8.04h25.792c15.681,0,28.438-12.757,28.438-28.438v-17.385
		c0-15.681-12.757-28.438-28.438-28.438H314.66c-4.434,0-8.04-3.606-8.04-8.04L306.62,220.709L306.62,220.709z M314.66,327.376
		h25.792c4.434,0,8.04,3.606,8.04,8.04v17.385c0,4.434-3.606,8.04-8.04,8.04H314.66c-15.681,0-28.438,12.757-28.438,28.438
		s12.757,28.438,28.438,28.438h25.792c4.434,0,8.04,3.606,8.04,8.04v17.385c0,4.434-3.606,8.04-8.04,8.04H314.66
		c-15.681,0-28.438,12.757-28.438,28.438v3.942c0,4.434-3.606,8.04-8.04,8.04h-44.362c-4.434,0-8.04-3.606-8.04-8.04V336.696
		l60.443-60.443v22.685C286.222,314.62,298.979,327.376,314.66,327.376z M400.383,184.231c0,4.434-3.606,8.04-8.04,8.04H314.66
		c-15.681,0-28.438,12.757-28.438,28.438v26.696l-60.443,60.443V220.71c0-15.681-12.757-28.438-28.438-28.438h-77.683
		c-4.434,0-8.04-3.606-8.04-8.04V28.438c0-4.434,3.606-8.04,8.04-8.04h272.686c4.434,0,8.04,3.606,8.04,8.04V184.231z"/>
	<path style="fill:#4D3D36;" d="M354.868,48.068h-3.824c-5.632,0-10.199,4.567-10.199,10.199s4.567,10.199,10.199,10.199h3.824
		c5.632,0,10.199-4.567,10.199-10.199S360.5,48.068,354.868,48.068z"/>
	<path style="fill:#4D3D36;" d="M157.134,68.466h157.859c5.632,0,10.199-4.567,10.199-10.199s-4.567-10.199-10.199-10.199H157.134
		c-5.632,0-10.199,4.567-10.199,10.199S151.502,68.466,157.134,68.466z"/>
	<path style="fill:#4D3D36;" d="M354.868,95.043H157.134c-5.632,0-10.199,4.567-10.199,10.199s4.567,10.199,10.199,10.199h197.733
		c5.632,0,10.199-4.567,10.199-10.199S360.5,95.043,354.868,95.043z"/>
	<path style="fill:#4D3D36;" d="M354.868,142.018H157.134c-5.632,0-10.199,4.567-10.199,10.199s4.567,10.199,10.199,10.199h197.733
		c5.632,0,10.199-4.567,10.199-10.199S360.5,142.018,354.868,142.018z"/>
</g>
<g>
</g>
<g>
</g>
<g>
</g>
<g>
</g>
<g>
</g>
<g>
</g>
<g>
</g>
<g>
</g>
<g>
</g>
<g>
</g>
<g>
</g>
<g>
</g>
<g>
</g>
<g>
</g>
<g>
</g>
</svg>
