<?xml version="1.0" encoding="iso-8859-1"?>
<!-- Generator: Adobe Illustrator 19.0.0, SVG Export Plug-In . SVG Version: 6.00 Build 0)  -->
<svg version="1.1" id="Layer_1" xmlns="http://www.w3.org/2000/svg" xmlns:xlink="http://www.w3.org/1999/xlink" x="0px" y="0px"
	 viewBox="0 0 512 512" style="enable-background:new 0 0 512 512;" xml:space="preserve">
<path style="fill:#FFFFFF;" d="M474.994,96.317H39.034c-16.799,0-30.416,13.617-30.416,30.416v258.535
	c0,16.799,13.617,30.416,30.416,30.416h435.96c16.799,0,30.416-13.617,30.416-30.416V126.733
	C505.41,109.934,491.793,96.317,474.994,96.317z"/>
<path style="fill:#78909C;" d="M7.604,180.974v-54.242c0-16.799,13.617-30.416,30.416-30.416h435.96
	c16.799,0,30.416,13.617,30.416,30.416v54.242H7.604z"/>
<path style="fill:#FFFFFF;" d="M43.596,150.558H28.388c0-20.965,17.055-38.02,38.02-38.02v15.208
	C53.829,127.747,43.596,137.979,43.596,150.558z"/>
<path style="fill:#E0E0E0;" d="M405.038,383.747v-50.693h-2.028v50.693h-70.97v-50.693H210.986
	c-6.27,12.57-15.44,23.707-26.685,32.226c-15.951,12.081-34.981,18.467-55.033,18.467c-50.314,0-91.248-40.934-91.248-91.248
	s40.934-91.248,91.248-91.248c20.052,0,39.082,6.386,55.033,18.467c11.246,8.517,20.415,19.655,26.685,32.226h265.022v131.802
	H405.038z"/>
<path style="fill:#FFC853;" d="M197.282,272.222c-8.727-29.313-35.867-50.693-68.015-50.693c-39.196,0-70.97,31.774-70.97,70.97
	s31.774,70.97,70.97,70.97c32.148,0,59.288-21.38,68.015-50.693h155.035v50.693h30.416v-50.693h42.582v50.693h30.416v-50.693
	v-40.554H197.282z M103.921,307.707c-8.399,0-15.208-6.809-15.208-15.208s6.809-15.208,15.208-15.208s15.208,6.809,15.208,15.208
	S112.32,307.707,103.921,307.707z"/>
<rect x="84.657" y="112.539" style="fill:#FFFFFF;" width="15.208" height="15.208"/>
<rect x="220.515" y="130.788" width="15.208" height="15.208"/>
<rect x="250.931" y="130.788" width="15.208" height="15.208"/>
<rect x="281.347" y="130.788" width="15.208" height="15.208"/>
<rect x="159.683" y="130.788" width="15.208" height="15.208"/>
<rect x="190.099" y="130.788" width="15.208" height="15.208"/>
<rect x="129.267" y="130.788" width="15.208" height="15.208"/>
<rect x="372.594" y="130.788" width="15.208" height="15.208"/>
<rect x="311.762" y="130.788" width="15.208" height="15.208"/>
<rect x="342.178" y="130.788" width="15.208" height="15.208"/>
<path d="M473.98,88.713H38.02C17.055,88.713,0,105.768,0,126.733v61.846v196.689c0,20.965,17.055,38.02,38.02,38.02h435.96
	c20.965,0,38.02-17.055,38.02-38.02V188.578v-61.846C512,105.768,494.945,88.713,473.98,88.713z M15.208,126.733
	c0-12.579,10.233-22.812,22.812-22.812h435.96c12.579,0,22.812,10.233,22.812,22.812v46.638H15.208V126.733z M496.792,385.267
	c0,12.579-10.233,22.812-22.812,22.812H38.02c-12.579,0-22.812-10.233-22.812-22.812V188.578h481.584V385.267z"/>
<path d="M129.267,371.073c17.267,0,33.651-5.497,47.381-15.897c11.744-8.895,20.857-21.099,26.079-34.796h141.986v50.693h45.624
	V320.38h27.374v50.693h45.624V264.618H202.727c-5.221-13.696-14.335-25.901-26.079-34.796c-13.73-10.4-30.114-15.897-47.381-15.897
	c-43.326,0-78.574,35.248-78.574,78.574S85.941,371.073,129.267,371.073z M129.267,229.133c27.821,0,52.793,18.61,60.726,45.259
	l1.618,5.434h256.515v76.04h-15.208v-50.693h-57.79v50.693h-15.208v-50.693H191.612l-1.618,5.434
	c-7.933,26.648-32.905,45.259-60.726,45.259c-34.94,0-63.366-28.427-63.366-63.366S94.328,229.133,129.267,229.133z"/>
<path d="M103.921,315.311c12.579,0,22.812-10.233,22.812-22.812c0-12.579-10.233-22.812-22.812-22.812s-22.812,10.233-22.812,22.812
	C81.109,305.078,91.342,315.311,103.921,315.311z M103.921,284.895c4.193,0,7.604,3.411,7.604,7.604
	c0,4.193-3.411,7.604-7.604,7.604c-4.193,0-7.604-3.411-7.604-7.604C96.317,288.306,99.727,284.895,103.921,284.895z"/>
<g>
</g>
<g>
</g>
<g>
</g>
<g>
</g>
<g>
</g>
<g>
</g>
<g>
</g>
<g>
</g>
<g>
</g>
<g>
</g>
<g>
</g>
<g>
</g>
<g>
</g>
<g>
</g>
<g>
</g>
</svg>
