<svg height="512" viewBox="0 0 512 512" width="512" xmlns="http://www.w3.org/2000/svg"><path d="m488 56v320a32 32 0 0 1 -32 32h-320a31.974 31.974 0 0 1 -32-32v-320a32 32 0 0 1 32-32h320a32 32 0 0 1 32 32z" fill="#348fd9"/><path d="m488 82.44v293.56a32 32 0 0 1 -32 32h-320a32.009 32.009 0 0 1 -30.18-21.34c122.67-41.62 286.03-127.92 382.18-304.22z" fill="#3086cd"/><g fill="#2a71ad"><path d="m136 48h16v16h-16z"/><path d="m168 48h16v16h-16z"/><path d="m200 48h16v16h-16z"/><path d="m136 80h320v16h-320z"/></g><path d="m416 272v-48h-27.146a95.275 95.275 0 0 0 -10.222-24.691l19.191-19.191-33.941-33.942-19.191 19.192a95.275 95.275 0 0 0 -24.691-10.222v-27.146h-48v27.146a95.275 95.275 0 0 0 -24.691 10.222l-19.191-19.192-33.941 33.942 19.191 19.191a95.275 95.275 0 0 0 -10.222 24.691h-27.146v48h27.146a95.275 95.275 0 0 0 10.222 24.691l-19.191 19.191 33.941 33.941 19.191-19.191a95.31 95.31 0 0 0 24.691 10.222v27.146h48v-27.146a95.31 95.31 0 0 0 24.691-10.222l19.191 19.191 33.941-33.941-19.191-19.191a95.275 95.275 0 0 0 10.222-24.691zm-120 0a24 24 0 1 1 24-24 24 24 0 0 1 -24 24z" fill="#f35244"/><path d="m296 320a72 72 0 1 1 72-72 72.084 72.084 0 0 1 -72 72zm0-128a56 56 0 1 0 56 56 56.063 56.063 0 0 0 -56-56z" fill="#d93e30"/><path d="m248 370v100a17.778 17.778 0 0 1 -2.46 9.07 17.967 17.967 0 0 1 -15.54 8.93h-188a17.967 17.967 0 0 1 -15.54-8.93 17.778 17.778 0 0 1 -2.46-9.07v-100a17.778 17.778 0 0 1 2.46-9.07 17.967 17.967 0 0 1 15.54-8.93h188a17.967 17.967 0 0 1 15.54 8.93 17.778 17.778 0 0 1 2.46 9.07z" fill="#ffb531"/><path d="m245.54 360.93c-24.77 13.79-64.61 22.74-109.54 22.74s-84.77-8.95-109.54-22.74a17.967 17.967 0 0 1 15.54-8.93h188a17.967 17.967 0 0 1 15.54 8.93z" fill="#ffcb73"/><path d="m245.54 479.07a17.967 17.967 0 0 1 -15.54 8.93h-188a17.967 17.967 0 0 1 -15.54-8.93c24.77-13.79 64.61-22.74 109.54-22.74s84.77 8.95 109.54 22.74z" fill="#ffa912"/><path d="m136 232a88 88 0 0 0 -88 88v32h32v-32a56 56 0 0 1 112 0v32h32v-32a88 88 0 0 0 -88-88z" fill="#e0e0de"/><path d="m160 416a24 24 0 1 0 -32 22.525v17.475h16v-17.474a23.96 23.96 0 0 0 16-22.526z" fill="#95573a"/></svg>