<?xml version="1.0" encoding="iso-8859-1"?>
<!-- Generator: Adobe Illustrator 19.0.0, SVG Export Plug-In . SVG Version: 6.00 Build 0)  -->
<svg version="1.1" id="Layer_1" xmlns="http://www.w3.org/2000/svg" xmlns:xlink="http://www.w3.org/1999/xlink" x="0px" y="0px"
	 viewBox="0 0 512 512" style="enable-background:new 0 0 512 512;" xml:space="preserve">
<path style="fill:#238CC5;" d="M399.654,512H112.346c-19.771,0-35.856-16.085-35.856-35.856V35.856
	C76.491,16.085,92.576,0,112.346,0h287.307c19.771,0,35.856,16.085,35.856,35.856v440.289C435.509,495.915,419.424,512,399.654,512z
	"/>
<path style="fill:#2275AA;" d="M399.654,0H255.999v512h143.653c19.771,0,35.856-16.085,35.856-35.856V35.856
	C435.509,16.085,419.424,0,399.654,0z"/>
<path style="fill:#FFE49C;" d="M435.509,418.126H76.491V93.872h359.018V418.126z"/>
<rect x="255.997" y="93.87" style="fill:#FFC72D;" width="179.505" height="324.254"/>
<path style="fill:#238CC5;" d="M310.372,267.345c-9.901,0-17.928-8.027-17.928-17.928v-22.681c0-20.095-16.349-36.444-36.444-36.444
	c-20.095,0-36.445,16.349-36.445,36.444v22.681c0,9.901-8.027,17.928-17.928,17.928s-17.928-8.027-17.928-17.928v-22.681
	c0-39.865,32.434-72.299,72.299-72.299s72.299,32.434,72.299,72.299v22.681C328.3,259.318,320.273,267.345,310.372,267.345z"/>
<path style="fill:#2264AA;" d="M255.999,154.438v35.856c20.095,0,36.444,16.349,36.444,36.444v22.681
	c0,9.901,8.027,17.928,17.928,17.928c9.901,0,17.928-8.027,17.928-17.928v-22.681C328.3,186.872,295.866,154.438,255.999,154.438z"
	/>
<path style="fill:#FFC72D;" d="M303.218,357.562h-94.436c-13.829,0-25.081-11.251-25.081-25.081v-83.063
	c0-9.901,8.027-17.928,17.928-17.928h108.743c9.901,0,17.928,8.027,17.928,17.928v83.063
	C328.3,346.31,317.048,357.562,303.218,357.562z"/>
<path style="fill:#F59D00;" d="M310.372,231.49h-54.371v126.072h47.218c13.83,0,25.081-11.251,25.081-25.081v-83.063
	C328.3,239.517,320.273,231.49,310.372,231.49z"/>
<circle style="fill:#238CC5;" cx="255.997" cy="294.53" r="14.317"/>
<path style="fill:#2264AA;" d="M255.999,280.208v28.634c7.907,0,14.317-6.41,14.317-14.317
	C270.317,286.619,263.907,280.208,255.999,280.208z"/>
<path style="fill:#2275AA;" d="M296.335,65.661h-80.672c-9.901,0-17.928-8.027-17.928-17.928s8.027-17.928,17.928-17.928h80.672
	c9.901,0,17.928,8.027,17.928,17.928S306.237,65.661,296.335,65.661z"/>
<path style="fill:#2264AA;" d="M296.335,29.806h-40.335v35.856h40.335c9.901,0,17.928-8.027,17.928-17.928
	S306.237,29.806,296.335,29.806z"/>
<g>
</g>
<g>
</g>
<g>
</g>
<g>
</g>
<g>
</g>
<g>
</g>
<g>
</g>
<g>
</g>
<g>
</g>
<g>
</g>
<g>
</g>
<g>
</g>
<g>
</g>
<g>
</g>
<g>
</g>
</svg>
