<?xml version="1.0" encoding="iso-8859-1"?>
<!-- Generator: Adobe Illustrator 19.0.0, SVG Export Plug-In . SVG Version: 6.00 Build 0)  -->
<svg version="1.1" id="Layer_1" xmlns="http://www.w3.org/2000/svg" xmlns:xlink="http://www.w3.org/1999/xlink" x="0px" y="0px"
	 viewBox="0 0 512 512" style="enable-background:new 0 0 512 512;" xml:space="preserve">
<g>
	<path style="fill:#38454F;" d="M282.82,512H61.45c-14.433,0-26.138-11.705-26.138-26.147V26.147C35.312,11.705,47.017,0,61.45,0
		H282.82c14.442,0,26.147,11.705,26.147,26.147v459.705C308.967,500.295,297.261,512,282.82,512"/>
	<polygon style="fill:#8697CB;" points="35.308,432.552 308.963,432.552 308.963,52.966 35.308,52.966 	"/>
	<g>
		<path style="fill:#D4DBDF;" d="M211.86,35.31h-44.138c-4.873,0-8.828-3.955-8.828-8.828s3.955-8.828,8.828-8.828h44.138
			c4.873,0,8.828,3.955,8.828,8.828S216.733,35.31,211.86,35.31"/>
		<path style="fill:#D4DBDF;" d="M141.239,35.31h-8.828c-4.873,0-8.828-3.955-8.828-8.828s3.955-8.828,8.828-8.828h8.828
			c4.873,0,8.828,3.955,8.828,8.828S146.112,35.31,141.239,35.31"/>
		<path style="fill:#D4DBDF;" d="M194.205,472.276c0,12.191-9.878,22.069-22.069,22.069s-22.069-9.878-22.069-22.069
			c0-12.191,9.878-22.069,22.069-22.069S194.205,460.085,194.205,472.276"/>
		<path style="fill:#D4DBDF;" d="M26.481,97.103c-4.873,0-8.828-3.955-8.828-8.828v-8.828c0-4.873,3.955-8.828,8.828-8.828
			s8.828,3.955,8.828,8.828v8.828C35.308,93.149,31.353,97.103,26.481,97.103"/>
		<path style="fill:#D4DBDF;" d="M26.481,132.414c-4.873,0-8.828-3.955-8.828-8.828v-8.828c0-4.873,3.955-8.828,8.828-8.828
			s8.828,3.955,8.828,8.828v8.828C35.308,128.459,31.353,132.414,26.481,132.414"/>
		<path style="fill:#D4DBDF;" d="M26.481,167.724c-4.873,0-8.828-3.955-8.828-8.828v-8.828c0-4.873,3.955-8.828,8.828-8.828
			s8.828,3.955,8.828,8.828v8.828C35.308,163.769,31.353,167.724,26.481,167.724"/>
	</g>
	<g>
		<path style="fill:#F0C419;" d="M185.382,335.448h-0.309c-4.873-0.177-8.686-4.264-8.519-9.137
			c3.178-91.171-12.279-114.202-12.429-114.432c-2.745-3.893-1.986-9.375,1.827-12.244c3.796-2.869,9.119-2.304,12.111,1.412
			c2.013,2.516,19.571,27.348,16.137,125.881C194.033,331.697,190.113,335.448,185.382,335.448"/>
		<path style="fill:#F0C419;" d="M238.347,317.793h-0.309c-4.873-0.177-8.686-4.264-8.519-9.137l0.556-15.607
			c1.483-40.854,2.383-65.518-1.483-85.601c0,0,0,0-0.009-0.009c-1.536-7.989-3.734-15.281-6.7-22.307
			c-9.128-21.583-27.763-34.993-48.631-34.993c-3.981,0-7.954,0.433-11.794,1.28c-4.776,1.042-9.472-1.96-10.522-6.718
			c-1.05-4.767,1.96-9.481,6.718-10.522c5.094-1.121,10.337-1.695,15.598-1.695c28.089,0,52.948,17.54,64.892,45.771
			c3.46,8.174,6.003,16.631,7.777,25.847c0,0,0,0,0,0.009c4.255,22.051,3.328,47.475,1.801,89.582l-0.556,15.581
			C246.998,314.041,243.079,317.793,238.347,317.793 M114.761,335.448h-0.309c-4.873-0.177-8.686-4.264-8.519-9.137
			c2.489-71.221-2.807-93.599-3.416-95.912c-2.198-8.113-3.204-16.508-2.966-24.867v-0.035c0.583-20.074,8.792-48.781,30.023-63.691
			c3.999-2.798,9.498-1.836,12.297,2.154c2.807,3.99,1.845,9.498-2.145,12.297c-14.795,10.39-22.042,33.086-22.528,49.779v0.018
			c-0.185,6.63,0.618,13.294,2.375,19.783c1.571,5.959,6.462,30.694,4.008,101.094C123.412,331.697,119.492,335.448,114.761,335.448
			"/>
		<path style="fill:#F0C419;" d="M211.989,329.935h-0.097c-4.873-0.053-8.783-4.043-8.73-8.925l0.009-2.225
			c0-2.277-0.026-4.343-0.062-6.435c-0.044-2.251-0.079-4.529-0.079-7.106V303.4c0.035-4.864,3.981-8.775,8.828-8.775h0.062
			c4.873,0.035,8.801,4.017,8.766,8.889v1.73c0,2.472,0.035,4.652,0.071,6.806c0.044,2.189,0.071,4.352,0.071,6.735l-0.009,2.419
			C220.763,326.051,216.817,329.935,211.989,329.935"/>
		<path style="fill:#F0C419;" d="M212.64,288.414c-4.785,0-8.713-3.822-8.819-8.625c-0.883-38.391-4.74-60.195-7.821-71.724
			c-1.262-4.714,1.545-9.551,6.25-10.814c4.687-1.245,9.543,1.545,10.805,6.25c4.846,18.132,7.68,43.661,8.413,75.882
			c0.115,4.873-3.743,8.916-8.625,9.031H212.64"/>
		<path style="fill:#F0C419;" d="M139.261,214.616h-0.247c-4.873-0.141-8.713-4.202-8.58-9.066
			c0.441-16.066,10.275-30.42,25.053-36.582c5.005-2.092,10.284-3.151,15.695-3.151c16.419,0,31.153,9.772,37.544,24.885
			c0.839,1.977,2.489,5.897,4.334,12.8c1.254,4.714-1.536,9.551-6.25,10.814c-4.714,1.245-9.551-1.545-10.814-6.25
			c-1.527-5.729-2.816-8.775-3.496-10.417c-3.655-8.633-12.014-14.177-21.319-14.177c-3.063,0-6.056,0.609-8.898,1.792
			c-8.377,3.487-13.948,11.644-14.204,20.762C147.947,210.82,144.028,214.616,139.261,214.616"/>
		<path style="fill:#F0C419;" d="M150.071,335.448h-0.309c-4.873-0.177-8.686-4.264-8.519-9.137
			c2.419-69.217-4.732-96.185-7.918-104.563c-0.053-0.141-0.3-0.803-0.344-0.945c-1.783-4.573-2.701-9.86-2.551-15.254
			c0.141-4.882,4.228-9.039,9.066-8.589c4.873,0.141,8.722,4.193,8.58,9.066c-0.079,3.046,0.441,6.02,1.536,8.872
			c4.643,12.226,11.714,42.205,9.278,112.031C158.722,331.697,154.803,335.448,150.071,335.448"/>
	</g>
	<path style="fill:#FDC794;" d="M467.679,236.551c0.044,0.6,0.185,1.183,0.185,1.792v61.793h-70.621v-61.793
		c0-0.609,0.132-1.192,0.177-1.792c-15.916,9.137-26.659,26.262-26.659,45.93v229.517h123.586V282.481
		C494.347,262.813,483.595,245.688,467.679,236.551"/>
	<g>
		<path style="fill:#F9A671;" d="M450.205,450.207h-35.31c-4.873,0-8.828-3.955-8.828-8.828s3.955-8.828,8.828-8.828h35.31
			c4.873,0,8.828,3.955,8.828,8.828S455.078,450.207,450.205,450.207"/>
		<path style="fill:#F9A671;" d="M459.032,485.517h-52.966c-4.873,0-8.828-3.955-8.828-8.828c0-4.873,3.955-8.828,8.828-8.828
			h52.966c4.873,0,8.828,3.955,8.828,8.828C467.86,481.562,463.905,485.517,459.032,485.517"/>
	</g>
	<path style="fill:#D75A4A;" d="M467.86,300.138h-70.621V220.69c0-19.5,15.81-35.31,35.31-35.31l0,0c19.5,0,35.31,15.81,35.31,35.31
		V300.138z"/>
</g>
<g>
</g>
<g>
</g>
<g>
</g>
<g>
</g>
<g>
</g>
<g>
</g>
<g>
</g>
<g>
</g>
<g>
</g>
<g>
</g>
<g>
</g>
<g>
</g>
<g>
</g>
<g>
</g>
<g>
</g>
</svg>
