<?xml version="1.0" encoding="iso-8859-1"?>
<!-- Generator: Adobe Illustrator 19.0.0, SVG Export Plug-In . SVG Version: 6.00 Build 0)  -->
<svg version="1.1" id="Layer_1" xmlns="http://www.w3.org/2000/svg" xmlns:xlink="http://www.w3.org/1999/xlink" x="0px" y="0px"
	 viewBox="0 0 512.001 512.001" style="enable-background:new 0 0 512.001 512.001;" xml:space="preserve">
<circle style="fill:#FDD042;" cx="323.09" cy="100.62" r="8.585"/>
<path style="fill:#EBEBEC;" d="M393.658,512.001H118.344c-5.69,0-10.302-4.612-10.302-10.302V10.303
	c0-5.69,4.612-10.302,10.302-10.302h275.312c5.69,0,10.302,4.612,10.302,10.302v491.396
	C403.958,507.389,399.346,512.001,393.658,512.001z"/>
<path style="fill:#D7D8D9;" d="M403.955,10.302v491.396c0,5.687-4.605,10.302-10.302,10.302h-55.63
	c5.687,0,10.302-4.615,10.302-10.302V10.302C348.326,4.615,343.71,0,338.023,0h55.63C399.35,0,403.955,4.615,403.955,10.302z"/>
<rect x="108.04" y="57.48" style="fill:#FDDD85;" width="295.92" height="367.82"/>
<rect x="347.73" y="57.48" style="fill:#FDD042;" width="56.23" height="367.82"/>
<circle style="fill:#F07B52;" cx="256" cy="470.64" r="20.224"/>
<path style="fill:#74DBC9;" d="M278.668,195.42c0-12.519-10.148-22.667-22.667-22.667c-12.519,0-22.667,10.148-22.667,22.667
	c0,7.631,3.775,14.377,9.556,18.485v19.888c0,7.211,5.9,13.111,13.111,13.111l0,0c7.211,0,13.111-5.9,13.111-13.111v-19.888
	C274.892,209.796,278.668,203.051,278.668,195.42z"/>
<g>
	<path style="fill:#57565C;" d="M268.427,38.096h-24.853c-4.267,0-7.726-3.459-7.726-7.726s3.459-7.726,7.726-7.726h24.853
		c4.267,0,7.726,3.459,7.726,7.726S272.694,38.096,268.427,38.096z"/>
	<path style="fill:#57565C;" d="M189.113,314.53h-25.358c-4.267,0-7.726-3.459-7.726-7.726s3.459-7.726,7.726-7.726h25.358
		c4.267,0,7.726,3.459,7.726,7.726C196.839,311.07,193.38,314.53,189.113,314.53z"/>
	<path style="fill:#57565C;" d="M242.157,314.53h-25.359c-4.267,0-7.726-3.459-7.726-7.726s3.459-7.726,7.726-7.726h25.359
		c4.267,0,7.726,3.459,7.726,7.726C249.884,311.07,246.424,314.53,242.157,314.53z"/>
	<path style="fill:#57565C;" d="M295.202,314.53h-25.359c-4.267,0-7.726-3.459-7.726-7.726s3.459-7.726,7.726-7.726h25.359
		c4.267,0,7.726,3.459,7.726,7.726C302.928,311.07,299.469,314.53,295.202,314.53z"/>
	<path style="fill:#57565C;" d="M348.246,314.53h-25.358c-4.267,0-7.726-3.459-7.726-7.726s3.459-7.726,7.726-7.726h25.358
		c4.267,0,7.726,3.459,7.726,7.726C355.973,311.07,352.513,314.53,348.246,314.53z"/>
</g>
<g>
	<path style="fill:#F07B52;" d="M256,154.674c-4.267,0-7.726-3.459-7.726-7.726v-16.899c0-4.267,3.459-7.726,7.726-7.726
		c4.267,0,7.726,3.459,7.726,7.726v16.899C263.727,151.214,260.268,154.674,256,154.674z"/>
	<path style="fill:#F07B52;" d="M322.888,204.662H305.99c-4.267,0-7.726-3.459-7.726-7.726s3.459-7.726,7.726-7.726h16.899
		c4.267,0,7.726,3.459,7.726,7.726S327.155,204.662,322.888,204.662z"/>
	<path style="fill:#F07B52;" d="M299.299,179.67c-2.67,0-5.267-1.386-6.698-3.865c-2.134-3.696-0.868-8.421,2.828-10.554
		l14.635-8.45c3.696-2.134,8.421-0.868,10.554,2.828c2.134,3.696,0.868,8.421-2.828,10.554l-14.635,8.45
		C301.938,179.336,300.61,179.67,299.299,179.67z"/>
	<path style="fill:#F07B52;" d="M280.987,161.372c-1.311,0-2.639-0.334-3.856-1.037c-3.696-2.133-4.962-6.859-2.828-10.554
		l8.45-14.635c2.134-3.696,6.858-4.962,10.554-2.828c3.696,2.133,4.962,6.859,2.828,10.554l-8.45,14.635
		C286.254,159.986,283.658,161.372,280.987,161.372z"/>
</g>
<g>
</g>
<g>
</g>
<g>
</g>
<g>
</g>
<g>
</g>
<g>
</g>
<g>
</g>
<g>
</g>
<g>
</g>
<g>
</g>
<g>
</g>
<g>
</g>
<g>
</g>
<g>
</g>
<g>
</g>
</svg>
