<svg width="407" height="100" viewBox="0 0 407 100" fill="none" xmlns="http://www.w3.org/2000/svg">
<g clip-path="url(#clip0_1428_1730)">
<path d="M149.025 74.0105C145.907 74.0105 143.033 73.437 140.401 72.2899C137.769 71.1429 135.482 69.5861 133.538 67.6197C131.635 65.6124 130.137 63.2568 129.044 60.553C127.951 57.8492 127.404 54.9611 127.404 51.8886V51.7657C127.404 48.6932 127.931 45.8255 128.983 43.1627C130.076 40.4589 131.595 38.1033 133.538 36.0959C135.482 34.0476 137.789 32.4499 140.462 31.3028C143.134 30.1148 146.089 29.5208 149.328 29.5208C151.272 29.5208 153.033 29.6846 154.612 30.0124C156.232 30.3401 157.709 30.8112 159.045 31.4257C160.382 31.9993 161.616 32.6957 162.75 33.515C163.884 34.3344 164.957 35.2356 165.969 36.2188L161.171 41.8108C159.471 40.2131 157.669 38.9226 155.766 37.9394C153.863 36.9562 151.697 36.4646 149.268 36.4646C147.243 36.4646 145.361 36.8743 143.62 37.6936C141.919 38.472 140.441 39.5576 139.186 40.9505C137.931 42.3024 136.959 43.9001 136.271 45.7436C135.583 47.5871 135.239 49.5535 135.239 51.6428V51.7657C135.239 53.855 135.583 55.8418 136.271 57.7263C136.959 59.5698 137.931 61.188 139.186 62.5808C140.441 63.9737 141.919 65.0798 143.62 65.8992C145.361 66.6775 147.243 67.0667 149.268 67.0667C151.859 67.0667 154.086 66.5751 155.948 65.5919C157.811 64.5677 159.653 63.1953 161.475 61.4748L166.273 66.3908C165.179 67.5788 164.025 68.6439 162.811 69.5861C161.637 70.4874 160.361 71.2863 158.985 71.9827C157.608 72.6382 156.09 73.1298 154.43 73.4575C152.81 73.8262 151.009 74.0105 149.025 74.0105Z" fill="#303030"/>
<path d="M191.25 74.0105C188.133 74.0105 185.258 73.437 182.626 72.2899C179.995 71.1429 177.707 69.5861 175.764 67.6197C173.861 65.6124 172.363 63.2568 171.27 60.553C170.176 57.8492 169.63 54.9611 169.63 51.8886V51.7657C169.63 48.6932 170.156 45.8255 171.209 43.1627C172.302 40.4589 173.82 38.1033 175.764 36.0959C177.707 34.0476 180.015 32.4499 182.687 31.3028C185.359 30.1148 188.315 29.5208 191.554 29.5208C193.497 29.5208 195.259 29.6846 196.838 30.0124C198.457 30.3401 199.935 30.8112 201.271 31.4257C202.607 31.9993 203.842 32.6957 204.976 33.515C206.109 34.3344 207.182 35.2356 208.194 36.2188L203.397 41.8108C201.696 40.2131 199.894 38.9226 197.992 37.9394C196.089 36.9562 193.923 36.4646 191.493 36.4646C189.469 36.4646 187.586 36.8743 185.845 37.6936C184.145 38.472 182.667 39.5576 181.412 40.9505C180.157 42.3024 179.185 43.9001 178.497 45.7436C177.808 47.5871 177.464 49.5535 177.464 51.6428V51.7657C177.464 53.855 177.808 55.8418 178.497 57.7263C179.185 59.5698 180.157 61.188 181.412 62.5808C182.667 63.9737 184.145 65.0798 185.845 65.8992C187.586 66.6775 189.469 67.0667 191.493 67.0667C194.084 67.0667 196.311 66.5751 198.174 65.5919C200.036 64.5677 201.878 63.1953 203.7 61.4748L208.498 66.3908C207.405 67.5788 206.251 68.6439 205.036 69.5861C203.862 70.4874 202.587 71.2863 201.21 71.9827C199.834 72.6382 198.315 73.1298 196.655 73.4575C195.036 73.8262 193.234 74.0105 191.25 74.0105Z" fill="#303030"/>
<path d="M213.313 28.4147H220.662V73.2731H213.313V28.4147Z" fill="#303030"/>
<path d="M249.639 54.7767C249.517 53.5887 249.254 52.4826 248.849 51.4584C248.444 50.3933 247.898 49.492 247.209 48.7546C246.521 47.9762 245.691 47.3617 244.719 46.9111C243.788 46.4605 242.715 46.2352 241.501 46.2352C239.233 46.2352 237.351 47.034 235.853 48.6317C234.395 50.1884 233.504 52.2368 233.18 54.7767H249.639ZM242.351 74.0105C240.043 74.0105 237.877 73.6009 235.853 72.7815C233.869 71.9622 232.128 70.8151 230.63 69.3403C229.172 67.8655 228.018 66.104 227.168 64.0556C226.318 61.9664 225.893 59.6722 225.893 57.1733V57.0504C225.893 54.7153 226.277 52.5235 227.046 50.4752C227.816 48.4269 228.889 46.6448 230.265 45.1291C231.682 43.5723 233.342 42.3638 235.245 41.5035C237.148 40.6022 239.253 40.1516 241.561 40.1516C244.112 40.1516 246.339 40.6227 248.242 41.565C250.185 42.5072 251.784 43.7772 253.04 45.3749C254.335 46.9726 255.307 48.8365 255.955 50.9668C256.603 53.0561 256.926 55.2683 256.926 57.6034C256.926 57.9311 256.906 58.2794 256.866 58.6481C256.866 58.9758 256.845 59.324 256.805 59.6927H233.241C233.646 62.3555 234.678 64.4039 236.338 65.8377C238.039 67.2306 240.083 67.927 242.472 67.927C244.294 67.927 245.873 67.5993 247.209 66.9438C248.545 66.2883 249.861 65.3256 251.157 64.0556L255.469 67.927C253.93 69.7705 252.088 71.2453 249.942 72.3514C247.837 73.4575 245.306 74.0105 242.351 74.0105Z" fill="#303030"/>
<path d="M281.493 59.6927C280.562 59.324 279.449 59.0168 278.153 58.771C276.898 58.5252 275.562 58.4023 274.145 58.4023C271.837 58.4023 270.035 58.8529 268.74 59.7542C267.444 60.6554 266.796 61.8844 266.796 63.4411V63.564C266.796 65.1208 267.383 66.3088 268.557 67.1281C269.772 67.9475 271.25 68.3571 272.991 68.3571C274.206 68.3571 275.319 68.1933 276.331 67.8655C277.384 67.5378 278.295 67.0872 279.064 66.5136C279.833 65.8992 280.42 65.1822 280.825 64.3629C281.271 63.5026 281.493 62.5604 281.493 61.5362V59.6927ZM281.311 73.2731V69.2789C280.218 70.5898 278.821 71.6959 277.121 72.5972C275.42 73.4985 273.355 73.9491 270.926 73.9491C269.387 73.9491 267.93 73.7238 266.553 73.2731C265.177 72.8635 263.962 72.249 262.909 71.4296C261.897 70.5693 261.067 69.5247 260.419 68.2957C259.812 67.0257 259.508 65.5714 259.508 63.9327V63.8098C259.508 62.0073 259.832 60.4506 260.48 59.1397C261.128 57.7878 262.019 56.6817 263.152 55.8214C264.326 54.9201 265.703 54.2646 267.282 53.855C268.902 53.4043 270.643 53.179 272.505 53.179C274.448 53.179 276.088 53.3019 277.424 53.5477C278.801 53.7935 280.117 54.1212 281.372 54.5309V53.9164C281.372 51.6632 280.684 49.9426 279.307 48.7546C277.971 47.5666 276.027 46.9726 273.477 46.9726C271.655 46.9726 270.035 47.1569 268.618 47.5256C267.201 47.8943 265.764 48.3859 264.306 49.0004L262.302 43.0398C264.084 42.2204 265.906 41.565 267.768 41.0734C269.63 40.5818 271.877 40.336 274.509 40.336C279.287 40.336 282.829 41.5445 285.137 43.9615C287.445 46.3376 288.599 49.6968 288.599 54.0393V73.2731H281.311Z" fill="#303030"/>
<path d="M294.728 40.8276H302.076V45.8665C302.602 45.0881 303.169 44.3712 303.777 43.7157C304.424 43.0193 305.153 42.4048 305.963 41.8722C306.813 41.3396 307.724 40.93 308.696 40.6432C309.708 40.3155 310.842 40.1516 312.097 40.1516C315.741 40.1516 318.555 41.2782 320.539 43.5314C322.522 45.7845 323.514 48.8161 323.514 52.626V73.2731H316.166V54.8382C316.166 52.2982 315.559 50.3523 314.344 49.0004C313.17 47.6075 311.49 46.9111 309.303 46.9111C307.157 46.9111 305.416 47.628 304.08 49.0619C302.744 50.4547 302.076 52.4211 302.076 54.9611V73.2731H294.728V40.8276Z" fill="#303030"/>
<path d="M351.762 54.7767C351.64 53.5887 351.377 52.4826 350.972 51.4584C350.567 50.3933 350.021 49.492 349.332 48.7546C348.644 47.9762 347.814 47.3617 346.842 46.9111C345.911 46.4605 344.838 46.2352 343.624 46.2352C341.356 46.2352 339.474 47.034 337.976 48.6317C336.518 50.1884 335.627 52.2368 335.303 54.7767H351.762ZM344.474 74.0105C342.166 74.0105 340 73.6009 337.976 72.7815C335.992 71.9622 334.251 70.8151 332.753 69.3403C331.295 67.8655 330.141 66.104 329.291 64.0556C328.441 61.9664 328.016 59.6722 328.016 57.1733V57.0504C328.016 54.7153 328.4 52.5235 329.17 50.4752C329.939 48.4269 331.012 46.6448 332.388 45.1291C333.805 43.5723 335.465 42.3638 337.368 41.5035C339.271 40.6022 341.377 40.1516 343.684 40.1516C346.235 40.1516 348.462 40.6227 350.365 41.565C352.308 42.5072 353.908 43.7772 355.163 45.3749C356.458 46.9726 357.43 48.8365 358.078 50.9668C358.726 53.0561 359.05 55.2683 359.05 57.6034C359.05 57.9311 359.029 58.2794 358.989 58.6481C358.989 58.9758 358.969 59.324 358.928 59.6927H335.364C335.769 62.3555 336.801 64.4039 338.461 65.8377C340.162 67.2306 342.207 67.927 344.595 67.927C346.417 67.927 347.996 67.5993 349.332 66.9438C350.669 66.2883 351.984 65.3256 353.28 64.0556L357.592 67.927C356.053 69.7705 354.211 71.2453 352.065 72.3514C349.96 73.4575 347.43 74.0105 344.474 74.0105Z" fill="#303030"/>
<path d="M363.818 40.8276H371.166V48.1401C372.179 45.6821 373.616 43.7157 375.478 42.2409C377.341 40.7661 379.689 40.0902 382.523 40.2131V48.0787H382.098C380.479 48.0787 379.001 48.3449 377.665 48.8775C376.329 49.4101 375.175 50.2089 374.203 51.2741C373.231 52.3392 372.482 53.6911 371.956 55.3298C371.43 56.9275 371.166 58.7914 371.166 60.9217V73.2731H363.818V40.8276Z" fill="#303030"/>
<g filter="url(#filter0_i_1428_1730)">
<path d="M108.106 75.5596L92.6593 59.8077C91.9459 58.9677 91.0885 59.0232 91.0885 59.0232C89.9911 59.0093 89.3943 60.0715 89.3943 60.0715C82.9605 70.0891 70.7787 70.4987 68.8512 70.4987H68.0556C56.7655 70.4987 47.6154 61.2725 47.6154 49.8942C47.6154 38.5159 56.7655 29.2897 68.0556 29.2897C68.0556 29.2897 68.1722 29.2828 68.3985 29.2828C70.3122 29.2828 79.9287 29.734 87.9951 38.3493C88.4821 38.87 88.9622 39.4948 89.4286 39.9252C89.4286 39.9252 89.9499 40.5291 90.8347 40.5291C91.6784 40.5291 92.2066 39.8419 92.2066 39.8419L107.057 22.5072C107.434 22.0698 107.619 21.3825 107.53 20.8063C107.454 20.1468 107.105 19.6608 107.105 19.6608C102.626 13.7877 96.8708 8.95594 90.2517 5.58202C83.5846 2.18033 76.0396 0.264282 68.0556 0.264282C40.8592 0.264282 18.8208 22.4863 18.8208 49.9011C18.8208 63.6606 24.3767 76.115 33.3484 85.1051C42.2516 94.0259 54.5157 99.538 68.0556 99.538C84.1539 99.538 98.3798 91.6933 107.365 79.6555C107.365 79.6555 107.88 78.8919 108.367 78.1282C109.245 76.7328 108.106 75.5596 108.106 75.5596Z" fill="url(#paint0_linear_1428_1730)"/>
</g>
<path d="M65.5525 70.3389C55.8606 69.1517 48.2607 61.1265 47.6502 51.1853C40.3247 40.5915 35.2078 28.3246 32.9717 15.058C24.2195 24.0134 18.8076 36.3151 18.8076 49.894C18.8076 77.3089 40.8528 99.5309 68.0424 99.5309C80.4643 99.5309 91.775 94.8588 100.417 87.1876C87.4949 84.2025 75.6423 78.3571 65.5525 70.3389Z" fill="url(#paint1_linear_1428_1730)"/>
<path opacity="0.7" d="M75.8077 77.3718C72.2204 75.2683 68.7977 72.9149 65.5533 70.3393C65.2652 70.3046 64.9772 70.263 64.6891 70.2144C64.6685 70.2074 64.6479 70.2074 64.6273 70.2005C64.3667 70.1588 64.1061 70.1033 63.8454 70.0478C63.7974 70.0408 63.7494 70.0269 63.7014 70.02C63.4682 69.9714 63.2349 69.9158 63.0086 69.8534C62.9331 69.8325 62.8646 69.8187 62.7891 69.7978C62.5833 69.7423 62.3776 69.6868 62.1718 69.6243C62.0758 69.5965 61.9866 69.5687 61.8906 69.541C61.7054 69.4785 61.5202 69.423 61.335 69.3535C61.2321 69.3188 61.1292 69.2772 61.0195 69.2425C60.9303 69.2077 60.8411 69.18 60.7519 69.1453C55.0314 84.5153 48.4535 90.3399 45.5727 92.2698C45.0377 92.6308 44.4547 92.9085 43.8511 93.1237C44.729 93.6235 45.6207 94.1095 46.5398 94.5607C54.9834 93.0057 62.6176 89.0486 69.7991 82.8561C72.0969 80.8776 74.1478 78.9685 75.8077 77.3718Z" fill="url(#paint2_linear_1428_1730)"/>
<mask id="mask0_1428_1730" style="mask-type:alpha" maskUnits="userSpaceOnUse" x="18" y="0" width="91" height="100">
<path d="M108.106 75.5597L92.6598 59.8078C91.9464 58.9678 91.089 59.0233 91.089 59.0233C89.9916 59.0095 89.3948 60.0716 89.3948 60.0716C82.9609 70.0892 70.7791 70.4988 68.8517 70.4988H68.0561C56.766 70.4988 47.6159 61.2726 47.6159 49.8943C47.6159 38.516 56.766 29.2898 68.0561 29.2898C68.0561 29.2898 68.1727 29.2829 68.399 29.2829C70.3127 29.2829 79.9292 29.7341 87.9955 38.3494C88.4825 38.8701 88.9627 39.4949 89.4291 39.9253C89.4291 39.9253 89.9504 40.5293 90.8352 40.5293C91.6789 40.5293 92.207 39.842 92.207 39.842L107.057 22.5073C107.434 22.0699 107.619 21.3826 107.53 20.8064C107.455 20.1469 107.105 19.661 107.105 19.661C102.626 13.7878 96.8713 8.95606 90.2522 5.58214C83.5851 2.18046 76.0401 0.264404 68.0561 0.264404C40.8596 0.264404 18.8213 22.4864 18.8213 49.9013C18.8213 63.6607 24.3772 76.1151 33.3489 85.1053C42.2521 94.026 54.5162 99.5381 68.0561 99.5381C84.1544 99.5381 98.3803 91.6934 107.366 79.6556C107.366 79.6556 107.88 78.892 108.367 78.1283C109.245 76.7329 108.106 75.5597 108.106 75.5597Z" fill="white"/>
</mask>
<g mask="url(#mask0_1428_1730)">
<ellipse cx="25.8799" cy="17.0436" rx="29.6245" ry="29.9834" fill="url(#paint3_radial_1428_1730)"/>
<path d="M134.782 40.4808C155.504 61.4532 160.73 90.1732 146.45 104.627C132.169 119.081 103.793 113.791 83.0715 92.8182C62.3501 71.8457 57.1234 43.1258 71.4041 28.6721C85.6848 14.2184 114.061 19.5083 134.782 40.4808Z" fill="url(#paint4_radial_1428_1730)"/>
<ellipse cx="108.696" cy="18.0017" rx="32.9992" ry="33.399" fill="url(#paint5_radial_1428_1730)"/>
<path opacity="0.16" d="M94.1557 13.2255C90.5546 43.0562 76.6375 65.8823 63.0701 64.2022C49.5028 62.5222 41.4227 36.9818 45.0238 7.15109C48.6248 -22.6796 62.542 -45.5056 76.1093 -43.8256C89.6767 -42.1456 97.7567 -16.6052 94.1557 13.2255Z" fill="url(#paint6_radial_1428_1730)"/>
<ellipse opacity="0.5" cx="84.387" cy="64.8686" rx="36.3533" ry="36.7729" fill="url(#paint7_radial_1428_1730)"/>
</g>
<g filter="url(#filter1_d_1428_1730)">
<path d="M52.7059 60.9949C52.7059 60.9949 52.1915 60.9463 51.7045 60.5436C51.2655 60.1826 34.6939 49.6027 31.2849 47.4229C31.2849 47.4229 21.1471 63.1539 1.28308 67.2012C1.28308 67.2012 0.91269 67.3054 1.09103 68.1523C1.26936 68.9993 3.30652 75.5597 9.4523 81.8632C9.4523 81.8632 10.9339 83.4599 12.8338 83.9667C14.727 84.4735 18.2594 84.3485 20.2554 83.9667C20.2554 83.9667 19.398 84.7442 16.0714 86.9102C15.8999 87.0213 15.8107 87.2365 15.8724 87.4378C15.9547 87.7155 16.236 88.0834 16.9287 88.5763C18.232 89.5066 22.4983 92.1516 25.2489 93.2207C25.2489 93.2207 26.2228 93.8941 30.2011 93.908H33.9051L36.7585 92.3043L35.4415 93.908C35.4415 93.908 39.5158 94.0121 42.8768 93.3456C43.8577 93.1512 44.7905 92.7625 45.6273 92.2071C48.8648 90.0411 56.794 82.967 62.9054 62.9387L52.7059 60.9949Z" fill="url(#paint8_linear_1428_1730)"/>
</g>
<path d="M64.6412 48.2559C64.6412 48.2559 40.9566 38.3563 39.427 37.7454C39.0567 37.5996 38.7343 37.5441 38.4668 37.5441C37.6162 37.5441 37.2458 38.0925 37.2458 38.0925L30.6748 47.0271C30.6748 47.0271 51.2247 60.134 51.7117 60.5436C52.1987 60.9532 52.7132 60.9949 52.7132 60.9949L64.1062 63.1678C64.1062 63.1678 65.4574 52.4976 65.7455 50.6024C66.0404 48.6169 64.6412 48.2559 64.6412 48.2559Z" fill="url(#paint9_linear_1428_1730)"/>
<path d="M52.7066 60.9949C52.7066 60.9949 52.5626 60.981 52.3568 60.9116C40.0104 86.1605 25.2427 93.2207 25.2427 93.2207C25.2427 93.2207 26.2167 93.8941 30.195 93.908H33.8989L36.7523 92.3043L35.4353 93.908C35.4353 93.908 39.5097 94.0121 42.8706 93.3457C43.8515 93.1513 44.7912 92.7556 45.6211 92.2002C48.8655 90.0342 56.7878 82.9532 62.8993 62.9318L52.7066 60.9949Z" fill="url(#paint10_linear_1428_1730)"/>
<path opacity="0.25" d="M52.7066 60.9949C52.7066 60.9949 52.5626 60.981 52.3568 60.9116C40.0104 86.1605 25.2427 93.2207 25.2427 93.2207C25.2427 93.2207 26.2167 93.8941 30.195 93.908H33.8989L36.7523 92.3043L35.4353 93.908C35.4353 93.908 39.5097 94.0121 42.8706 93.3457C43.8515 93.1513 44.7912 92.7556 45.6211 92.2002C48.8655 90.0342 56.7878 82.9532 62.8993 62.9318L52.7066 60.9949Z" fill="url(#paint11_linear_1428_1730)"/>
<path d="M48.4531 41.4939L64.5652 7.24104C64.5652 7.24104 65.6421 4.70713 68.7493 5.8873C71.7673 7.15079 70.0182 10.2748 70.0182 10.2748L56.2725 44.7568L48.4531 41.4939Z" fill="url(#paint12_linear_1428_1730)"/>
<path d="M51.8072 42.0012L65.7313 9.65736C65.7313 9.65736 66.4378 8.11619 66.3074 7.25535C66.1977 6.52642 65.4295 6.28344 64.8807 6.77634C64.8396 6.81105 64.8053 6.8527 64.7641 6.89436C64.6269 7.10262 64.5652 7.24841 64.5652 7.24841L48.4531 41.4944L51.1693 42.3344C51.1762 42.3344 51.6563 42.4802 51.8072 42.0012Z" fill="url(#paint13_linear_1428_1730)"/>
<path d="M47.4249 69.9018C49.0848 67.1943 50.7379 64.2091 52.3566 60.9116C52.1714 60.8491 51.9314 60.738 51.705 60.5436C51.266 60.1827 34.6944 49.6027 31.2854 47.4229C31.2854 47.4229 29.5638 50.0887 26.1548 53.5112L47.4249 69.9018Z" fill="url(#paint14_linear_1428_1730)"/>
<path d="M64.6401 48.2561C64.6401 48.2561 63.4329 47.7493 61.5535 46.9649C58.7687 45.8055 58.2886 47.3189 58.2886 47.3189C58.2749 47.3745 58.2543 47.43 58.2337 47.4855C58.2269 47.4994 58.2269 47.5064 58.2269 47.5202C58.2063 47.5897 58.1857 47.6521 58.1651 47.7216C58.1445 47.791 58.124 47.8535 58.1034 47.9229C56.3337 53.3795 52.3966 60.8424 52.3623 60.9118C52.5681 60.9812 52.7121 61.002 52.7121 61.002L64.1051 63.1749C64.1051 63.1749 65.4564 52.5048 65.7445 50.6095C66.0394 48.6171 64.6401 48.2561 64.6401 48.2561Z" fill="url(#paint15_linear_1428_1730)"/>
<path d="M60.1277 70.8806C61.0743 68.4856 62.0071 65.8545 62.8919 62.9387L52.7061 60.9949C52.7061 60.9949 52.5621 60.981 52.3563 60.9116C50.9022 63.8898 49.4137 66.5973 47.9185 69.0895L60.1277 70.8806Z" fill="url(#paint16_linear_1428_1730)"/>
</g>
<defs>
<filter id="filter0_i_1428_1730" x="18.8208" y="0.264282" width="89.8784" height="99.2737" filterUnits="userSpaceOnUse" color-interpolation-filters="sRGB">
<feFlood flood-opacity="0" result="BackgroundImageFix"/>
<feBlend mode="normal" in="SourceGraphic" in2="BackgroundImageFix" result="shape"/>
<feColorMatrix in="SourceAlpha" type="matrix" values="0 0 0 0 0 0 0 0 0 0 0 0 0 0 0 0 0 0 127 0" result="hardAlpha"/>
<feOffset/>
<feGaussianBlur stdDeviation="1.35373"/>
<feComposite in2="hardAlpha" operator="arithmetic" k2="-1" k3="1"/>
<feColorMatrix type="matrix" values="0 0 0 0 0 0 0 0 0 0 0 0 0 0 0 0 0 0 0.55 0"/>
<feBlend mode="normal" in2="shape" result="effect1_innerShadow_1428_1730"/>
</filter>
<filter id="filter1_d_1428_1730" x="0.500987" y="46.9716" width="62.9458" height="47.574" filterUnits="userSpaceOnUse" color-interpolation-filters="sRGB">
<feFlood flood-opacity="0" result="BackgroundImageFix"/>
<feColorMatrix in="SourceAlpha" type="matrix" values="0 0 0 0 0 0 0 0 0 0 0 0 0 0 0 0 0 0 127 0" result="hardAlpha"/>
<feOffset dy="0.0902488"/>
<feGaussianBlur stdDeviation="0.270747"/>
<feComposite in2="hardAlpha" operator="out"/>
<feColorMatrix type="matrix" values="0 0 0 0 0 0 0 0 0 0 0 0 0 0 0 0 0 0 0.25 0"/>
<feBlend mode="normal" in2="BackgroundImageFix" result="effect1_dropShadow_1428_1730"/>
<feBlend mode="normal" in="SourceGraphic" in2="effect1_dropShadow_1428_1730" result="shape"/>
</filter>
<linearGradient id="paint0_linear_1428_1730" x1="25.1732" y1="107.32" x2="116.875" y2="96.6286" gradientUnits="userSpaceOnUse">
<stop stop-color="#C62522"/>
<stop offset="0.416" stop-color="#E77056"/>
<stop offset="0.6995" stop-color="#E77056"/>
<stop offset="1" stop-color="#C1483F"/>
</linearGradient>
<linearGradient id="paint1_linear_1428_1730" x1="-13.5769" y1="43.3534" x2="37.1247" y2="126.312" gradientUnits="userSpaceOnUse">
<stop offset="0.00372024" stop-color="#CB2D29"/>
<stop offset="0.3251" stop-color="#D53736"/>
<stop offset="1" stop-color="#CB2D29"/>
</linearGradient>
<linearGradient id="paint2_linear_1428_1730" x1="47.907" y1="66.2797" x2="41.4574" y2="94.6345" gradientUnits="userSpaceOnUse">
<stop stop-color="#D14C3D" stop-opacity="0.01"/>
<stop offset="0.4922" stop-color="#A72520" stop-opacity="0.6369"/>
<stop offset="0.7728" stop-color="#941313"/>
</linearGradient>
<radialGradient id="paint3_radial_1428_1730" cx="0" cy="0" r="1" gradientUnits="userSpaceOnUse" gradientTransform="translate(25.8829 17.0551) scale(29.6258 29.9847)">
<stop stop-color="#D84540"/>
<stop offset="0.982" stop-color="#E77056" stop-opacity="0.01"/>
</radialGradient>
<radialGradient id="paint4_radial_1428_1730" cx="0" cy="0" r="1" gradientUnits="userSpaceOnUse" gradientTransform="translate(108.842 66.7147) rotate(-45.345) scale(36.7855 36.7829)">
<stop offset="0.1238" stop-color="#C93E35"/>
<stop offset="0.982" stop-color="#E77056" stop-opacity="0.01"/>
</radialGradient>
<radialGradient id="paint5_radial_1428_1730" cx="0" cy="0" r="1" gradientUnits="userSpaceOnUse" gradientTransform="translate(108.696 18.0033) scale(32.9986 33.3984)">
<stop stop-color="#BE463F"/>
<stop offset="0.982" stop-color="#E77056" stop-opacity="0.01"/>
</radialGradient>
<radialGradient id="paint6_radial_1428_1730" cx="0" cy="0" r="1" gradientUnits="userSpaceOnUse" gradientTransform="translate(69.7028 10.3113) rotate(7.046) scale(24.7523 52.0567)">
<stop stop-color="white"/>
<stop offset="0.982" stop-color="#E77056" stop-opacity="0.01"/>
</radialGradient>
<radialGradient id="paint7_radial_1428_1730" cx="0" cy="0" r="1" gradientUnits="userSpaceOnUse" gradientTransform="translate(84.38 64.8691) scale(36.3486 36.7681)">
<stop stop-color="#D02C25"/>
<stop offset="0.982" stop-color="#E77056" stop-opacity="0.01"/>
</radialGradient>
<linearGradient id="paint8_linear_1428_1730" x1="-10.1905" y1="70.6208" x2="21.205" y2="110.016" gradientUnits="userSpaceOnUse">
<stop stop-color="#F8E6C9"/>
<stop offset="0.3801" stop-color="#F6E0BE"/>
<stop offset="0.7875" stop-color="#F0C789"/>
<stop offset="1" stop-color="#EDBC73"/>
</linearGradient>
<linearGradient id="paint9_linear_1428_1730" x1="22.0553" y1="55.2087" x2="49.288" y2="78.2506" gradientUnits="userSpaceOnUse">
<stop stop-color="#7EC0E5"/>
<stop offset="0.19" stop-color="#63B3DF"/>
<stop offset="0.4779" stop-color="#178CCB"/>
<stop offset="0.6748" stop-color="#0269B0"/>
<stop offset="1" stop-color="#025596"/>
</linearGradient>
<linearGradient id="paint10_linear_1428_1730" x1="26.5708" y1="57.2279" x2="21.7017" y2="93.6158" gradientUnits="userSpaceOnUse">
<stop stop-color="#EFC586" stop-opacity="0.01"/>
<stop offset="0.4493" stop-color="#EBB667"/>
<stop offset="0.8301" stop-color="#CF9A59"/>
<stop offset="1" stop-color="#BC864F"/>
</linearGradient>
<linearGradient id="paint11_linear_1428_1730" x1="28.5253" y1="82.6957" x2="48.2501" y2="94.268" gradientUnits="userSpaceOnUse">
<stop offset="0.536" stop-color="#EFC586" stop-opacity="0.01"/>
<stop offset="1" stop-color="#BC864F"/>
</linearGradient>
<linearGradient id="paint12_linear_1428_1730" x1="54.8717" y1="28.9006" x2="62.368" y2="31.7585" gradientUnits="userSpaceOnUse">
<stop offset="0.1573" stop-color="#2D93CF"/>
<stop offset="0.691144" stop-color="#025C9F"/>
<stop offset="0.8927" stop-color="#026EB6"/>
</linearGradient>
<linearGradient id="paint13_linear_1428_1730" x1="74.8494" y1="-4.22765" x2="36.2468" y2="-12.2875" gradientUnits="userSpaceOnUse">
<stop offset="0.3348" stop-color="#459CD2"/>
<stop offset="0.4722" stop-color="#519CCF" stop-opacity="0.01"/>
</linearGradient>
<linearGradient id="paint14_linear_1428_1730" x1="41.3147" y1="64.7756" x2="46.4669" y2="56.8604" gradientUnits="userSpaceOnUse">
<stop offset="0.8253" stop-color="#EDC483" stop-opacity="0.01"/>
<stop offset="0.8531" stop-color="#E4B979" stop-opacity="0.1128"/>
<stop offset="0.9486" stop-color="#C8955A" stop-opacity="0.5"/>
<stop offset="1" stop-color="#BF894F" stop-opacity="0.8"/>
</linearGradient>
<linearGradient id="paint15_linear_1428_1730" x1="52.3583" y1="63.1714" x2="65.7842" y2="63.1714" gradientUnits="userSpaceOnUse">
<stop offset="0.0245" stop-color="#4199CF"/>
<stop offset="0.0957" stop-color="#2282C5"/>
<stop offset="0.7111" stop-color="#025596" stop-opacity="0.01"/>
</linearGradient>
<linearGradient id="paint16_linear_1428_1730" x1="59.8533" y1="71.7692" x2="61.8632" y2="62.1717" gradientUnits="userSpaceOnUse">
<stop offset="0.7804" stop-color="#EDC483" stop-opacity="0.01"/>
<stop offset="0.8108" stop-color="#E4B979" stop-opacity="0.1128"/>
<stop offset="0.9151" stop-color="#C8955A" stop-opacity="0.5"/>
<stop offset="1" stop-color="#BF894F" stop-opacity="0.9"/>
</linearGradient>
<clipPath id="clip0_1428_1730">
<rect width="406" height="100" fill="white" transform="translate(0.131836)"/>
</clipPath>
</defs>
</svg>
